<svg width="150" height="150" viewBox="0 0 150 150" fill="none" xmlns="http://www.w3.org/2000/svg"><path d="M76.399 126.072c-10.144 0-18.923-2.069-26.337-6.208-7.369-4.14-13.055-10.03-17.058-17.672C29.001 94.55 27 85.498 27 75.036s2.001-19.514 6.004-27.155c4.003-7.642 9.689-13.533 17.058-17.672C57.476 26.069 66.255 24 76.399 24c12.236 0 22.425 3.002 30.567 9.006 8.188 6.005 13.532 14.374 16.034 25.11l-28.043 6.481c-.864-5.413-2.91-9.552-6.14-12.418-3.23-2.866-7.37-4.298-12.418-4.298-4.367 0-8.074 1.069-11.122 3.206-3.002 2.093-5.299 5.163-6.891 9.211-1.547 4.049-2.32 8.961-2.32 14.738 0 5.777.773 10.712 2.32 14.806 1.592 4.049 3.89 7.142 6.891 9.28 3.048 2.092 6.755 3.138 11.122 3.138 4.594 0 8.347-1.205 11.258-3.616 2.91-2.456 5.094-6.004 6.55-10.644l28.52 5.117c-2.638 10.371-8.006 18.468-16.102 24.29-8.051 5.777-18.127 8.665-30.226 8.665z" fill="#000"/></svg>