<svg width="136" height="26" viewBox="0 0 136 26" fill="none" xmlns="http://www.w3.org/2000/svg"><path d="M9.666 20.284c-1.946 0-3.616-.387-5.01-1.162a8.047 8.047 0 01-3.228-3.254c-.74-1.412-1.11-3.073-1.11-4.984s.37-3.564 1.11-4.958a8.046 8.046 0 013.228-3.254C6.05 1.897 7.72 1.51 9.666 1.51c1.256 0 2.401.18 3.434.542 1.033.344 1.911.852 2.634 1.524L14.47 6.752c-.792-.62-1.55-1.059-2.273-1.317-.705-.258-1.506-.387-2.401-.387-1.705 0-3.013.507-3.926 1.523-.895.999-1.343 2.436-1.343 4.313 0 1.877.448 3.323 1.343 4.338.913 1.016 2.221 1.524 3.926 1.524.895 0 1.696-.129 2.401-.387.723-.259 1.481-.698 2.273-1.317l1.265 3.176c-.723.654-1.6 1.162-2.634 1.524-1.033.361-2.178.542-3.434.542zm12.87 0c-1.394 0-2.607-.275-3.64-.826a6.064 6.064 0 01-2.376-2.376c-.551-1.016-.827-2.23-.827-3.641 0-1.395.276-2.6.827-3.616a5.89 5.89 0 012.376-2.35c1.033-.55 2.246-.826 3.64-.826 1.395 0 2.61.275 3.642.826a5.686 5.686 0 012.376 2.35c.568 1.016.852 2.221.852 3.616 0 1.411-.284 2.625-.852 3.64a5.848 5.848 0 01-2.376 2.377c-1.033.55-2.247.826-3.641.826zm0-2.944c.896 0 1.602-.318 2.118-.955.534-.637.801-1.619.801-2.944 0-1.326-.267-2.299-.8-2.919-.517-.62-1.223-.93-2.118-.93-.895 0-1.61.31-2.144.93-.516.62-.774 1.593-.774 2.919 0 1.325.258 2.307.774 2.944.534.637 1.249.955 2.144.955zm13.443 2.944c-1.136 0-2.135-.275-2.996-.826-.86-.551-1.532-1.335-2.014-2.35-.482-1.016-.723-2.239-.723-3.667 0-1.412.24-2.626.723-3.642.482-1.015 1.154-1.79 2.014-2.324.861-.55 1.86-.826 2.996-.826 1.05 0 1.988.258 2.815.774.843.5 1.394 1.18 1.653 2.04h-.285l.31-2.556h3.745c-.052.568-.103 1.145-.155 1.73a27.774 27.774 0 00-.052 1.679V20h-3.873l-.026-2.453h.31c-.276.826-.827 1.489-1.653 1.988-.826.5-1.756.75-2.789.75zm1.188-2.944c.895 0 1.618-.318 2.17-.955.55-.637.825-1.619.825-2.944 0-1.326-.275-2.299-.826-2.919-.55-.62-1.274-.93-2.17-.93-.894 0-1.617.31-2.168.93-.551.62-.827 1.593-.827 2.919 0 1.325.267 2.307.8 2.944.552.637 1.283.955 2.196.955zm15.31 2.944c-1.395 0-2.617-.275-3.667-.826a5.77 5.77 0 01-2.428-2.376c-.568-1.033-.852-2.256-.852-3.667 0-1.43.284-2.643.852-3.642A5.847 5.847 0 0148.81 7.45c1.05-.533 2.272-.8 3.667-.8.878 0 1.73.129 2.556.387.844.258 1.532.62 2.066 1.085l-1.136 2.685a4.1 4.1 0 00-1.498-.878 4.548 4.548 0 00-1.601-.31c-1.05 0-1.868.328-2.453.982-.586.654-.878 1.601-.878 2.84 0 1.24.292 2.187.878 2.841.585.655 1.403.982 2.453.982.5 0 1.024-.095 1.575-.285a4.575 4.575 0 001.524-.852l1.136 2.66c-.55.465-1.248.835-2.092 1.11a8.439 8.439 0 01-2.53.388zM58.282 20V.993h3.9V9.36h-.388c.413-.878 1.024-1.55 1.833-2.014.81-.465 1.74-.697 2.79-.697 1.532 0 2.677.447 3.434 1.343.758.878 1.136 2.23 1.136 4.054V20h-3.9v-7.773c0-.913-.171-1.567-.516-1.963-.327-.396-.843-.594-1.55-.594-.86 0-1.549.267-2.065.8-.517.534-.775 1.249-.775 2.144V20h-3.9zm14.469 0v-4.132h4.183V20h-4.183z" fill="#1E1835"/><path d="M83.436 20v-8.651l.826 2.298-7.98-11.853h4.649l5.01 7.799h-.826l5.01-7.8h4.493l-7.954 11.854.8-2.298V20h-4.028zm14.866.284c-1.395 0-2.609-.275-3.642-.826a6.064 6.064 0 01-2.375-2.376c-.551-1.016-.827-2.23-.827-3.641 0-1.395.276-2.6.827-3.616a5.89 5.89 0 012.375-2.35c1.033-.55 2.247-.826 3.642-.826 1.394 0 2.608.275 3.641.826a5.686 5.686 0 012.376 2.35c.568 1.016.852 2.221.852 3.616 0 1.411-.284 2.625-.852 3.64a5.848 5.848 0 01-2.376 2.377c-1.033.55-2.247.826-3.641.826zm0-2.944c.895 0 1.6-.318 2.117-.955.534-.637.801-1.619.801-2.944 0-1.326-.267-2.299-.801-2.919-.516-.62-1.222-.93-2.117-.93-.896 0-1.61.31-2.144.93-.516.62-.775 1.593-.775 2.919 0 1.325.259 2.307.775 2.944.534.637 1.248.955 2.144.955zm14.578 8.445c-1.257 0-2.376-.13-3.357-.388a8.619 8.619 0 01-2.634-1.11l.749-2.79c.482.31.99.56 1.523.75a8.328 8.328 0 001.679.439 9.938 9.938 0 001.73.155c1.154 0 2.014-.276 2.583-.827.568-.55.852-1.334.852-2.35v-2.711h.258c-.275.826-.826 1.489-1.653 1.988-.826.5-1.756.75-2.789.75-1.17 0-2.195-.268-3.073-.801-.861-.534-1.532-1.292-2.014-2.273-.482-.981-.723-2.135-.723-3.46 0-1.326.241-2.48.723-3.461.482-.981 1.153-1.73 2.014-2.247.878-.533 1.903-.8 3.073-.8 1.05 0 1.972.25 2.763.749.81.482 1.352 1.127 1.627 1.936l-.206-.103.258-2.324h3.77c-.068.568-.12 1.145-.154 1.73a27.294 27.294 0 00-.052 1.679v8.91c0 2.117-.594 3.735-1.782 4.854-1.188 1.137-2.91 1.705-5.165 1.705zm.103-9.039c.913 0 1.636-.31 2.17-.93.533-.62.8-1.506.8-2.66 0-1.153-.267-2.031-.8-2.634-.534-.62-1.257-.93-2.17-.93-.947 0-1.695.31-2.246.93-.534.603-.801 1.481-.801 2.634 0 1.154.267 2.04.801 2.66.551.62 1.299.93 2.246.93zm14.07 3.538c-1.136 0-2.135-.275-2.996-.826-.861-.551-1.532-1.335-2.014-2.35-.482-1.016-.723-2.239-.723-3.667 0-1.412.241-2.626.723-3.642.482-1.015 1.153-1.79 2.014-2.324.861-.55 1.86-.826 2.996-.826 1.05 0 1.988.258 2.815.774.843.5 1.394 1.18 1.653 2.04h-.285l.31-2.556h3.745c-.052.568-.103 1.145-.155 1.73a28.11 28.11 0 00-.052 1.679V20h-3.873l-.026-2.453h.31c-.276.826-.827 1.489-1.653 1.988-.826.5-1.756.75-2.789.75zm1.188-2.944c.895 0 1.618-.318 2.169-.955.551-.637.826-1.619.826-2.944 0-1.326-.275-2.299-.826-2.919-.551-.62-1.274-.93-2.169-.93s-1.619.31-2.169.93c-.551.62-.827 1.593-.827 2.919 0 1.325.267 2.307.801 2.944.551.637 1.282.955 2.195.955z" fill="#672EBB"/></svg>