<svg width="191" height="4" viewBox="0 0 191 4" fill="none" xmlns="http://www.w3.org/2000/svg"><path d="M84.126 3.667c3.291.04 6.583.098 9.974.137 8.877.118 85.878.391 94.257-.41 2.992-.294 1.396-1.292-1.696-1.273h-1.496c.499-.352-.199-.587-2.194-.704 1.596 0 3.291 0 4.887.02 4.189.019 4.189-1.35 0-1.37C148.859-.09 42.134.027 3.235.438c-3.491.04-4.688 1.214-.898 1.35 5.985.216 11.97.216 17.954.412-.698.097-1.097.254-1.297.41-.399 0-.798.02-1.097.02-4.19.078-4.289 1.39 0 1.37 22.043-.118 44.186-.235 66.229-.333z" fill="#FFBD13"/></svg>