<svg width="103" height="32" viewBox="0 0 103 32" fill="none" xmlns="http://www.w3.org/2000/svg"><g clip-path="url(#clip0)"><path d="M54.037 8.04a2.078 2.078 0 01-2.081 2.082 2.077 2.077 0 01-2.082-2.082c0-1.153.897-2.081 2.082-2.081 1.185.032 2.081.96 2.081 2.081zm-8.582 4.197v.512s-.992-1.281-3.105-1.281c-3.49 0-6.213 2.658-6.213 6.342 0 3.652 2.69 6.342 6.213 6.342 2.145 0 3.105-1.313 3.105-1.313v.544c0 .257.193.448.449.448h2.593V11.787h-2.593a.46.46 0 00-.449.45zm0 7.72c-.48.704-1.44 1.313-2.593 1.313-2.05 0-3.619-1.282-3.619-3.46s1.57-3.46 3.62-3.46c1.12 0 2.145.641 2.592 1.314v4.292zm4.964-8.17h3.074v12.045h-3.074V11.788zm45.918-.32c-2.113 0-3.106 1.282-3.106 1.282V5.991h-3.074v17.841h2.594a.458.458 0 00.448-.448v-.545s.993 1.314 3.106 1.314c3.49 0 6.212-2.69 6.212-6.342 0-3.652-2.722-6.344-6.18-6.344zm-.512 9.77c-1.185 0-2.114-.608-2.594-1.313v-4.292c.48-.64 1.505-1.314 2.594-1.314 2.05 0 3.618 1.282 3.618 3.46s-1.569 3.46-3.618 3.46zm-7.269-4.548v7.175h-3.074v-6.823c0-1.985-.64-2.787-2.369-2.787-.928 0-1.889.481-2.498 1.186v8.393h-3.073V11.787h2.432c.257 0 .449.225.449.449v.512c.897-.929 2.081-1.281 3.266-1.281 1.345 0 2.466.385 3.362 1.153 1.088.897 1.505 2.05 1.505 4.068zM70.08 11.467c-2.112 0-3.105 1.282-3.105 1.282V5.991H63.9v17.841h2.593a.458.458 0 00.449-.448v-.545s.993 1.314 3.106 1.314c3.49 0 6.212-2.69 6.212-6.342.032-3.652-2.69-6.344-6.18-6.344zm-.512 9.77c-1.184 0-2.113-.608-2.593-1.313v-4.292c.48-.64 1.505-1.314 2.593-1.314 2.05 0 3.619 1.282 3.619 3.46s-1.57 3.46-3.619 3.46zm-8.325-9.77c.928 0 1.409.16 1.409.16v2.851s-2.562-.864-4.163.962v8.424h-3.074V11.788h2.594c.256 0 .448.224.448.449v.512c.577-.673 1.826-1.282 2.786-1.282zM29.317 22.743c-.16-.384-.32-.8-.48-1.153-.256-.577-.513-1.122-.736-1.634l-.032-.032a334.018 334.018 0 00-7.077-14.478l-.096-.192c-.263-.499-.519-1-.768-1.506-.32-.577-.64-1.185-1.153-1.762C17.95.705 16.477 0 14.909 0c-1.602 0-3.043.705-4.099 1.922-.48.576-.833 1.185-1.153 1.762a68.61 68.61 0 01-.768 1.505l-.096.193c-2.466 4.804-4.867 9.673-7.077 14.478l-.032.063c-.224.514-.48 1.058-.737 1.634-.16.353-.32.737-.48 1.153-.416 1.185-.544 2.306-.384 3.46a6.807 6.807 0 004.163 5.317A6.57 6.57 0 006.84 32a8.457 8.457 0 004.035-1.153c1.313-.737 2.562-1.794 3.97-3.331 1.409 1.538 2.69 2.594 3.97 3.331a8.459 8.459 0 003.203 1.089c.256.032.577.064.833.064.896 0 1.793-.16 2.593-.513 2.242-.897 3.81-2.946 4.163-5.317.255-1.12.127-2.242-.29-3.427zm-14.44 1.666c-1.73-2.179-2.85-4.229-3.235-5.958-.16-.737-.192-1.377-.096-1.954.064-.513.257-.961.513-1.346.608-.864 1.633-1.409 2.818-1.409s2.241.513 2.818 1.41c.256.384.448.833.513 1.345.095.577.063 1.25-.097 1.954-.385 1.697-1.506 3.748-3.235 5.957zm12.775 1.505a4.76 4.76 0 01-2.914 3.748c-.768.32-1.6.416-2.433.32-.8-.096-1.601-.352-2.433-.832-1.153-.642-2.306-1.634-3.65-3.108 2.112-2.594 3.393-4.965 3.874-7.079.224-.993.256-1.89.16-2.723a5.194 5.194 0 00-.865-2.178c-.993-1.442-2.658-2.274-4.515-2.274-1.857 0-3.522.865-4.515 2.274a5.2 5.2 0 00-.864 2.178 6.656 6.656 0 00.16 2.724c.48 2.113 1.793 4.516 3.874 7.11-1.313 1.474-2.498 2.467-3.65 3.107-.833.481-1.633.737-2.434.833a5.122 5.122 0 01-2.434-.32A4.76 4.76 0 012.1 25.946a5.3 5.3 0 01.288-2.498c.096-.32.256-.64.416-1.025.225-.513.48-1.058.737-1.602l.032-.064a349.304 349.304 0 017.044-14.382l.096-.192c.257-.48.513-.993.769-1.474.256-.512.544-.993.897-1.41.672-.768 1.568-1.184 2.561-1.184.993 0 1.89.416 2.562 1.184.352.418.64.899.897 1.41.256.481.512.994.768 1.474l.096.192a424.155 424.155 0 017.013 14.414v.032c.256.514.48 1.09.736 1.603.16.384.32.704.417 1.024.255.832.351 1.633.223 2.466z" fill="#FF5A5F"/></g><defs><clipPath id="clip0"><path fill="#fff" d="M0 0h102.531v32H0z"/></clipPath></defs></svg>