<svg width="187" height="32" viewBox="0 0 187 32" fill="none" xmlns="http://www.w3.org/2000/svg"><g clip-path="url(#clip0)" fill="#0080FF"><path d="M15.652 31.988v-6.22c6.484 0 11.485-6.503 8.985-13.385a9.292 9.292 0 00-2.124-3.397 9.096 9.096 0 00-3.34-2.161 9.508 9.508 0 00-4.57-.556 9.562 9.562 0 00-4.305 1.658 9.773 9.773 0 00-3.062 3.497 9.963 9.963 0 00-1.123 4.54H0C0 5.598 9.91-2.602 20.746.792a15.1 15.1 0 016.172 3.806 15.457 15.457 0 013.74 6.279c3.334 11.028-4.725 21.112-15.006 21.112z"/><path d="M15.745 25.767H9.632V19.64h6.113v6.127zm-6.113 4.807H5v-4.808h4.63v4.808zM5 25.766H1.115V21.81h3.886v3.957zM55.85 9.273c-1.76-1.226-4.075-1.892-6.67-1.892h-5.648V25.76h5.65c2.594 0 4.817-.66 6.67-1.98a7.187 7.187 0 002.315-2.92c.558-1.226.833-2.734.833-4.337 0-1.602-.277-3.11-.833-4.241-.558-1.406-1.298-2.348-2.317-3.009zm-8.983 1.226h1.76c1.944 0 3.61.379 4.907 1.226 1.39.848 2.046 2.46 2.046 4.808s-.744 4.052-2.046 4.995c-1.203.756-2.778 1.226-4.817 1.226h-1.85V10.498zm16.115-3.392a1.856 1.856 0 00-1.39.568c-.21.166-.38.38-.492.626a1.728 1.728 0 00-.156.787c0 .525.205 1.028.57 1.4.364.37.86.579 1.375.579.516 0 1.01-.209 1.376-.58.364-.37.57-.874.57-1.399a1.947 1.947 0 00-.558-1.413c-.278-.379-.745-.568-1.302-.568h.007zm-1.681 5.655h3.241v12.913h-3.228V12.76H61.3zm14.832 1.135c-.93-.847-2.046-1.413-3.242-1.413a5.647 5.647 0 00-2.378.467 5.735 5.735 0 00-1.976 1.425 6.627 6.627 0 00-1.76 4.618c0 1.792.559 3.393 1.675 4.619s2.592 1.791 4.354 1.791a5.067 5.067 0 003.148-1.037v.282c0 1.037-.277 1.892-.833 2.46-.556.567-1.302.847-2.315.847-1.488 0-2.409-.567-3.52-2.168l-2.231 2.168.093.095c.463.66 1.203 1.324 2.13 1.979.926.655 2.129.946 3.518.946 1.946 0 3.428-.568 4.538-1.792 1.11-1.224 1.76-2.733 1.76-4.712V12.76h-3.145v1.135h.186-.002zM75.3 21.53c-.558.66-1.301.946-2.231.946-.93 0-1.674-.281-2.232-.946-.558-.664-.833-1.513-.833-2.544 0-1.031.295-1.89.853-2.55.558-.66 1.302-.947 2.232-.947.93 0 1.674.282 2.232.946.558.664.833 1.514.833 2.545s-.277 1.892-.833 2.545l-.02.005zm6.781-8.77h3.242v12.912h-3.262v-12.91l.02-.003zm1.555-5.654a1.87 1.87 0 00-1.39.565 1.935 1.935 0 00-.555 1.414c0 .525.205 1.028.57 1.4.364.37.86.58 1.375.58a1.93 1.93 0 001.376-.58c.364-.372.57-.875.57-1.4a1.963 1.963 0 00-.557-1.414 1.895 1.895 0 00-1.39-.565h.001zm8.61 2.166H89.1v3.49h-1.86v2.92h1.86v5.373c0 1.703.372 2.922 1.02 3.582.647.66 1.86 1.037 3.427 1.037a8.844 8.844 0 001.575-.095h.186v-2.923l-1.116.095c-.744 0-1.302-.095-1.487-.379-.278-.282-.372-.847-.372-1.703v-4.892h2.964v-2.923h-2.955l-.097-3.582zm17.967-1.892h3.241v18.38h-3.238V7.392l-.003-.012zm35.57 13.772a10.79 10.79 0 01-1.575 1.514 3.117 3.117 0 01-2.934.192 3.161 3.161 0 01-1.046-.768c-.649-.756-.93-1.602-.93-2.733 0-1.132.277-1.98.93-2.734a2.858 2.858 0 011.039-.795c.401-.18.838-.262 1.277-.242 1.019 0 2.129.66 3.055 1.792l2.13-2.082c-1.389-1.791-3.149-2.639-5.28-2.639-1.76 0-3.242.66-4.538 1.98a6.913 6.913 0 00-1.86 4.807c0 1.892.649 3.581 1.86 4.807a6.026 6.026 0 002.06 1.484 5.94 5.94 0 002.478.495c2.315 0 4.168-1.037 5.464-2.921l-2.13-2.168v.011zm13.06-6.514a4.886 4.886 0 00-1.86-1.514 5.953 5.953 0 00-2.685-.567c-1.76 0-3.242.66-4.354 1.979a7.649 7.649 0 00-1.575 4.807c0 1.98.558 3.582 1.759 4.808 1.201 1.226 2.686 1.892 4.631 1.892 2.129 0 3.891-.848 5.28-2.64l.093-.094-2.13-2.081c-.186.282-.463.47-.743.756-.263.282-.58.507-.93.66a3 3 0 01-1.576.38 3.524 3.524 0 01-2.231-.758c-.558-.47-.834-1.135-.93-1.979h8.521v-1.226a7.13 7.13 0 00-.372-2.46 4.3 4.3 0 00-.93-1.978l.032.015zm-6.946 3.023c.141-.57.429-1.092.833-1.513a2.23 2.23 0 01.769-.51c.288-.113.596-.164.905-.15.744 0 1.389.189 1.759.66.372.378.558.946.649 1.513h-4.915zm19.265-3.865c-.929-.848-2.315-1.226-3.981-1.226a7.99 7.99 0 00-2.961.662c-.833.471-1.674 1.136-2.13 2.081l2.046 1.98c.833-1.414 1.759-1.893 3.056-1.893a2.558 2.558 0 011.674.568c.211.166.38.38.493.627.112.245.166.515.156.786v.66a6.987 6.987 0 00-2.316-.378c-1.574 0-2.871.379-3.891 1.135-1.019.757-1.487 1.892-1.487 3.205 0 1.226.372 2.169 1.203 2.921.831.753 1.86 1.037 3.056 1.037 1.195 0 2.315-.47 3.427-1.324v1.037h3.149v-8.295c0-1.513-.463-2.733-1.488-3.581l-.006-.002zm-5.644 6.976c.372-.282.833-.379 1.488-.379a7.763 7.763 0 012.408.471v1.226a4.048 4.048 0 01-2.778 1.037c-.558 0-1.02-.094-1.302-.378-.283-.284-.463-.568-.463-.946a1.543 1.543 0 01.649-1.037l-.002.006zm19.444-6.787c-.93-1.037-2.129-1.513-3.705-1.513-1.296 0-2.315.378-3.055 1.135v-.757h-3.151v12.913h3.242v-7.16c0-.945.186-1.791.649-2.355a2.34 2.34 0 01.834-.641 2.298 2.298 0 011.026-.207 2 2 0 01.925.176c.291.132.547.33.749.581.435.603.663 1.334.649 2.081v7.54h3.227v-7.551c-.093-1.791-.557-3.205-1.39-4.242zm-78.727-.189c-.93-.848-2.316-1.226-3.982-1.226a7.993 7.993 0 00-2.965.66c-.833.471-1.674 1.136-2.13 2.082l2.047 1.979c.833-1.414 1.759-1.892 3.055-1.892a2.556 2.556 0 011.674.567c.211.166.38.38.493.627.113.246.166.515.156.786v.66a6.984 6.984 0 00-2.315-.378c-1.575 0-2.872.379-3.891 1.136-1.02.756-1.488 1.892-1.488 3.204 0 1.226.372 2.169 1.203 2.922.832.753 1.86 1.036 3.056 1.036s2.316-.47 3.428-1.324v1.037h3.148v-8.293c0-1.513-.558-2.733-1.488-3.581l-.001-.002zm-5.742 6.976c.372-.282.834-.379 1.488-.379a7.769 7.769 0 012.409.471v1.226a4.052 4.052 0 01-2.779 1.037c-.558 0-1.019-.094-1.302-.378-.282-.284-.463-.568-.463-.946.139-.39.36-.744.649-1.037l-.002.006zm24.552 5.273a9.154 9.154 0 01-5.149-1.587 9.395 9.395 0 01-3.414-4.23 9.577 9.577 0 01-.529-5.446 9.474 9.474 0 012.535-4.827 9.22 9.22 0 014.744-2.58 9.12 9.12 0 015.354.535 9.302 9.302 0 014.159 3.472 9.545 9.545 0 011.562 5.237 9.544 9.544 0 01-2.723 6.654 9.22 9.22 0 01-6.539 2.772zm0-15.645a5.948 5.948 0 00-3.348 1.028 6.099 6.099 0 00-2.222 2.746 6.219 6.219 0 00-.347 3.54 6.156 6.156 0 001.645 3.14 5.988 5.988 0 003.082 1.68 5.926 5.926 0 003.48-.346 6.043 6.043 0 002.705-2.255 6.2 6.2 0 001.018-3.403 6.217 6.217 0 00-.455-2.346 6.113 6.113 0 00-1.305-1.99 5.992 5.992 0 00-1.955-1.327 5.921 5.921 0 00-2.306-.463"/></g><defs><clipPath id="clip0"><path fill="#fff" d="M0 0h186.353v32H0z"/></clipPath></defs></svg>