<svg width="20" height="20" viewBox="0 0 20 20" fill="none" xmlns="http://www.w3.org/2000/svg"><path d="M2.5 9.318v1.364a1.25 1.25 0 11-2.5 0V9.318a1.25 1.25 0 012.5 0zm15 .036v-.036a1.25 1.25 0 112.5.036v1.363a1.25 1.25 0 01-2.5 0V9.354zM6.818 13.41v1.363a1.25 1.25 0 11-2.5 0v-1.364a1.25 1.25 0 112.5 0zm0-8.183v4.46a1.25 1.25 0 01-2.5 0v-4.46a1.25 1.25 0 012.5 0zm6.364 1.363a1.25 1.25 0 102.5 0V5.228a1.25 1.25 0 10-2.5 0v1.364zM8.75 2.614a1.25 1.25 0 002.5 0V1.25a1.25 1.25 0 10-2.5 0v1.364zm0 14.772a1.25 1.25 0 012.5 0v1.364a1.25 1.25 0 11-2.5 0v-1.364zm4.432-7.046a1.25 1.25 0 112.5 0v4.433a1.25 1.25 0 11-2.5 0V10.34zM11.25 6.364v7.272a1.25 1.25 0 11-2.5 0V6.364a1.25 1.25 0 112.5 0z" fill="#F6BD30"/></svg>