<svg width="125" height="32" viewBox="0 0 125 32" fill="none" xmlns="http://www.w3.org/2000/svg"><g clip-path="url(#clip0)"><path d="M42.319 20.622v-9.244c0-.57.46-1.031 1.028-1.031a1.03 1.03 0 011.028 1.03v9.245a1.03 1.03 0 01-1.028 1.031c-.532 0-1.028-.462-1.028-1.03zm11.769.391l-4.467-7.146v6.755a1.03 1.03 0 01-1.028 1.031 1.03 1.03 0 01-1.028-1.03v-8.96c0-.747.603-1.387 1.383-1.387h.07c.461 0 .922.248 1.17.64l4.431 7.04v-6.65c0-.568.461-1.03 1.029-1.03a1.03 1.03 0 011.027 1.03v8.96c0 .747-.602 1.387-1.382 1.387-.496 0-.957-.213-1.205-.64zm9.748-8.746v8.462c0 .533-.425.96-.957.96h-.142a.955.955 0 01-.957-.96v-8.462h-2.375a.955.955 0 01-.957-.96c0-.534.425-.96.957-.96h6.842c.531 0 .957.426.957.96 0 .533-.426.96-.957.96h-2.41zm4.998 8.462v-9.493a.94.94 0 01.922-.925h6.203a.94.94 0 01.922.925.94.94 0 01-.922.924H70.89v2.631h4.36a.94.94 0 01.922.925.94.94 0 01-.921.924h-4.36v3.093h5.068a.94.94 0 01.922.925.94.94 0 01-.922.924h-6.203c-.496.071-.922-.32-.922-.853zm16.732.32l-1.63-3.662h-2.518v3.27a1.03 1.03 0 01-1.028 1.032h-.035a1.03 1.03 0 01-1.028-1.031v-9.28c0-.57.46-1.031 1.028-1.031h3.758c2.694 0 3.934 1.706 3.934 3.52 0 1.529-.815 2.702-2.056 3.164l1.418 3.2c.284.676-.177 1.422-.921 1.422-.39 0-.78-.213-.922-.604zm-1.418-8.925h-2.694v3.378h2.73c1.17 0 1.843-.604 1.843-1.67-.036-.89-.71-1.708-1.879-1.708zm13.683 8.392a4.585 4.585 0 01-3.226 1.35c-1.205 0-2.34-.39-3.19-1.28-1.24-1.244-1.418-2.737-1.418-4.586 0-1.849.177-3.378 1.418-4.587.85-.853 1.985-1.28 3.19-1.28 1.206 0 2.375.463 3.226 1.316.284.32.532.64.71 1.031.318.676-.178 1.422-.923 1.422-.425 0-.78-.249-.957-.64-.07-.213-.212-.39-.354-.569-.355-.462-.993-.71-1.702-.71-.638 0-1.276.284-1.737.746-.78.818-.78 2.204-.78 3.271 0 1.031 0 2.453.78 3.271.461.462 1.1.747 1.737.747.71 0 1.347-.25 1.702-.711.142-.178.283-.391.354-.605.142-.39.532-.64.957-.64.745 0 1.241.747.922 1.422a3.55 3.55 0 01-.709 1.032zm11.025.07c-.851.854-2.056 1.28-3.262 1.28-1.205 0-2.375-.426-3.261-1.28-1.241-1.244-1.418-2.737-1.418-4.586 0-1.849.213-3.378 1.418-4.587.851-.853 2.056-1.28 3.261-1.28 1.206 0 2.375.427 3.262 1.28 1.24 1.245 1.418 2.738 1.418 4.587.035 1.849-.178 3.378-1.418 4.587zm-1.454-7.822a2.584 2.584 0 00-1.772-.746c-.638 0-1.347.284-1.773.746-.779.818-.815 2.205-.815 3.272 0 1.03.036 2.417.815 3.235a2.587 2.587 0 001.773.747c.638 0 1.347-.285 1.772-.747.78-.818.816-2.204.816-3.235 0-1.067-.036-2.49-.816-3.272zm14.818 7.894v-7.076l-2.659 7.218c-.142.427-.567.711-1.028.711-.461 0-.851-.284-1.028-.711l-2.659-7.324v7.182a.992.992 0 11-1.985 0v-8.782c0-.854.709-1.565 1.56-1.565h.142a1.52 1.52 0 011.453 1.031l2.588 7.04 2.623-7.04a1.57 1.57 0 011.454-1.03c.85 0 1.559.71 1.559 1.564v8.782a.992.992 0 01-.992.995c-.603 0-1.028-.426-1.028-.995zM27.962 0H4.034A3.977 3.977 0 00.03 3.982v24A3.985 3.985 0 004.034 32h23.928a3.97 3.97 0 003.97-3.982v-24c0-2.24-1.772-4.018-3.97-4.018zm-7.728 5.867c0-.605.461-1.067 1.064-1.067s1.063.462 1.063 1.067v14.257c0 .605-.46 1.067-1.063 1.067a1.046 1.046 0 01-1.064-1.067V5.867zm-5.317-.534c0-.604.461-1.066 1.064-1.066.602 0 1.063.462 1.063 1.066V20.8c0 .604-.46 1.067-1.063 1.067a1.046 1.046 0 01-1.064-1.067V5.333zM9.6 5.867c0-.605.46-1.067 1.063-1.067s1.064.462 1.064 1.067v14.257c0 .605-.461 1.067-1.064 1.067A1.046 1.046 0 019.6 20.124V5.867zM4.283 8c0-.604.46-1.067 1.063-1.067S6.41 7.396 6.41 8v9.6c0 .604-.461 1.067-1.064 1.067A1.046 1.046 0 014.283 17.6V8zm23.041 16.284c-.177.143-4.112 3.45-11.343 3.45-7.232 0-11.167-3.307-11.344-3.45a1.037 1.037 0 01-.106-1.493 1.03 1.03 0 011.489-.107c.07 0 3.58 2.916 9.96 2.916 6.452 0 9.926-2.916 9.926-2.951.461-.391 1.135-.32 1.489.107a1.075 1.075 0 01-.07 1.528zm.355-6.684c0 .604-.461 1.067-1.064 1.067a1.046 1.046 0 01-1.063-1.067V8c0-.604.46-1.067 1.063-1.067S27.68 7.396 27.68 8v9.6z" fill="#58526F"/></g><defs><clipPath id="clip0"><path fill="#fff" d="M0 0h124.235v32H0z"/></clipPath></defs></svg>