<svg width="99" height="20" viewBox="0 0 99 20" fill="none" xmlns="http://www.w3.org/2000/svg"><path d="M51.168 9.378c-.805 0-1.385.264-1.973.533v6.084c.563.054.886.054 1.42.054 1.932 0 2.197-.885 2.197-2.12v-2.906c0-.912-.302-1.645-1.644-1.645zm-12.83-.332c-1.34 0-1.645.736-1.645 1.647v.512h3.29v-.512c0-.911-.306-1.647-1.644-1.647zM13.487 15.38c0 .72.34 1.095 1.091 1.095.805 0 1.282-.262 1.87-.532V14.5h-1.76c-.835 0-1.2.155-1.2.88zm50.161-6c-1.342 0-1.807.732-1.807 1.644v3.329c0 .914.465 1.65 1.807 1.65 1.34 0 1.808-.736 1.808-1.65v-3.329c0-.912-.469-1.645-1.807-1.645zM6.907 19.11H2.96V9.56H.99V6.268h1.97V4.29C2.96 1.605 4.074.009 7.237.009h2.634V3.3H8.225c-1.232 0-1.313.46-1.313 1.319l-.005 1.647h2.982L9.54 9.56H6.907v9.552zm13.487.025h-3.289l-.142-.832a7.538 7.538 0 01-3.726.967c-2.412 0-3.696-1.611-3.696-3.84 0-2.63 1.498-3.567 4.178-3.567h2.728v-.569c0-1.342-.154-1.736-2.218-1.736h-3.374l.33-3.291h3.688c4.528 0 5.521 1.43 5.521 5.054v7.814zM31.58 9.801c-2.047-.351-2.634-.429-3.62-.429-1.768 0-2.303.39-2.303 1.893v2.841c0 1.503.535 1.895 2.304 1.895.985 0 1.572-.079 3.62-.431v3.21c-1.794.403-2.962.508-3.949.508-4.237 0-5.92-2.228-5.92-5.447v-2.305c0-3.222 1.683-5.454 5.92-5.454.987 0 2.155.106 3.948.51V9.8zm12.35 4.04h-7.237v.266c0 1.502.535 1.894 2.304 1.894 1.59 0 2.56-.079 4.603-.431v3.21c-1.97.403-2.997.508-4.93.508-4.238 0-5.923-2.228-5.923-5.447v-2.636c0-2.817 1.25-5.123 5.592-5.123 4.343 0 5.591 2.28 5.591 5.123v2.636zm12.829.061c0 3.111-.89 5.38-6.276 5.38-1.945 0-3.086-.17-5.233-.5V.997l3.945-.659V6.56c.853-.317 1.956-.478 2.96-.478 3.946 0 4.603 1.77 4.603 4.612v3.208zm12.646.068c0 2.684-1.108 5.287-5.743 5.287-4.638 0-5.767-2.603-5.767-5.287v-2.591c0-2.686 1.129-5.289 5.767-5.289 4.635 0 5.743 2.603 5.743 5.289v2.59zm12.638 0c0 2.684-1.11 5.287-5.744 5.287-4.638 0-5.767-2.603-5.767-5.287v-2.591c0-2.686 1.129-5.289 5.767-5.289 4.635 0 5.744 2.603 5.744 5.289v2.59zm12.97 5.141h-4.276l-3.617-6.037v6.037h-3.947V.997L87.12.34V12l3.617-5.732h4.276l-3.948 6.256 3.948 6.587zM76.284 9.378c-1.34 0-1.805.733-1.805 1.645v3.329c0 .914.465 1.65 1.805 1.65 1.339 0 1.813-.736 1.813-1.65v-3.329c0-.912-.474-1.645-1.813-1.645zm20.98 7.48a1.2 1.2 0 011.194 1.219c0 .687-.53 1.223-1.199 1.223a1.207 1.207 0 01-1.206-1.223c0-.677.54-1.219 1.206-1.219h.005zm-.005.19c-.535 0-.973.46-.973 1.029 0 .579.438 1.033.978 1.033.54.006.972-.454.972-1.028 0-.573-.431-1.034-.972-1.034h-.005zm-.227 1.738h-.216v-1.36c.114-.015.222-.031.384-.031.206 0 .34.043.423.102.08.06.123.152.123.281 0 .18-.119.288-.264.331v.01c.118.023.2.13.227.33.031.212.064.292.085.337h-.227c-.032-.045-.065-.169-.092-.348-.031-.172-.119-.237-.292-.237h-.15v.585zm0-.752h.157c.178 0 .33-.066.33-.234 0-.12-.087-.238-.33-.238-.07 0-.12.006-.157.01v.462z" fill="#3B5998"/></svg>