<svg width="92" height="28" viewBox="0 0 92 28" fill="none" xmlns="http://www.w3.org/2000/svg"><path d="M11.94 25.252c-2.071 0-3.882-.42-5.431-1.26a8.952 8.952 0 01-3.556-3.612c-.821-1.55-1.232-3.341-1.232-5.376 0-2.016.41-3.79 1.232-5.32A8.77 8.77 0 016.509 6.1c1.55-.859 3.36-1.288 5.432-1.288 1.307 0 2.567.196 3.78.588 1.232.392 2.221.924 2.968 1.596l-1.596 3.724c-1.624-1.176-3.304-1.764-5.04-1.764-1.605 0-2.837.513-3.696 1.54-.859 1.008-1.288 2.51-1.288 4.508 0 2.016.43 3.537 1.288 4.564.859 1.027 2.09 1.54 3.696 1.54 1.736 0 3.416-.588 5.04-1.764l1.596 3.724c-.747.672-1.736 1.204-2.968 1.596a12.218 12.218 0 01-3.78.588zm16.096-.028c-1.587 0-2.969-.299-4.145-.896a6.357 6.357 0 01-2.715-2.576c-.635-1.12-.952-2.436-.952-3.948s.317-2.828.951-3.948a6.354 6.354 0 012.716-2.576c1.177-.597 2.558-.896 4.145-.896 1.567 0 2.93.308 4.087.924a6.35 6.35 0 012.717 2.576c.634 1.101.951 2.408.951 3.92s-.317 2.828-.951 3.948c-.635 1.101-1.54 1.96-2.717 2.576-1.157.597-2.52.896-4.087.896zm0-3.78c1.829 0 2.743-1.213 2.743-3.64 0-1.232-.233-2.137-.7-2.716-.448-.597-1.129-.896-2.044-.896-.933 0-1.633.299-2.1.896-.466.579-.7 1.484-.7 2.716 0 1.25.234 2.175.7 2.772.467.579 1.167.868 2.1.868zm25.12-10.668V25h-4.984v-1.932c-.41.672-1.008 1.204-1.792 1.596a5.915 5.915 0 01-2.576.56c-1.213 0-2.296-.299-3.248-.896-.952-.597-1.699-1.447-2.24-2.548-.523-1.12-.784-2.408-.784-3.864 0-1.475.27-2.781.812-3.92.541-1.139 1.288-2.025 2.24-2.66.952-.635 2.025-.952 3.22-.952.933 0 1.783.205 2.548.616.784.392 1.39.924 1.82 1.596v-1.82h4.984zm-7.784 10.668c.896 0 1.587-.308 2.072-.924.485-.616.728-1.503.728-2.66 0-1.176-.243-2.072-.728-2.688-.485-.635-1.176-.952-2.072-.952-.877 0-1.568.327-2.072.98-.504.635-.756 1.54-.756 2.716 0 1.139.243 2.016.728 2.632.485.597 1.185.896 2.1.896zm17.852 3.78c-2.408 0-4.293-.653-5.656-1.96-1.362-1.307-2.044-3.09-2.044-5.348 0-1.493.327-2.81.98-3.948a6.802 6.802 0 012.8-2.632c1.195-.635 2.576-.952 4.144-.952a10.2 10.2 0 013.08.476c1.008.299 1.81.71 2.408 1.232l-1.288 3.5a5.981 5.981 0 00-1.764-.98c-.672-.243-1.316-.364-1.932-.364-1.045 0-1.848.299-2.408.896-.56.597-.84 1.484-.84 2.66 0 1.195.28 2.1.84 2.716.56.597 1.372.896 2.436.896.616 0 1.25-.121 1.904-.364a5.981 5.981 0 001.764-.98l1.288 3.444c-.616.541-1.437.961-2.464 1.26-1.008.299-2.09.448-3.248.448zm16.874-14.84c1.68 0 2.931.513 3.752 1.54.84 1.008 1.26 2.539 1.26 4.592V25h-5.068v-8.26c0-.877-.149-1.503-.448-1.876-.298-.392-.765-.588-1.4-.588-.765 0-1.38.261-1.848.784-.466.504-.7 1.176-.7 2.016V25h-5.068V4.392h5.068v8.12c1.102-1.419 2.586-2.128 4.452-2.128z" fill="#fff"/><circle cx="90" cy="23" r="2" fill="#FF5938"/></svg>