<svg width="91" height="30" viewBox="0 0 91 30" fill="none" xmlns="http://www.w3.org/2000/svg"><g clip-path="url(#clip0)"><path d="M1.216 1.063l7.545.308 4.65 4.213 23.359.103L36.666.96l15.71.103-.103 4.418 4.857.205.103 3.494 4.135-3.494 9.818-.102V1.268l8.372-.205.103 4.418 5.891.103 4.548 4.11.103 14.59-84.956.206-4.444-4.624.413-18.803z" fill="#fff"/><path d="M8.59 27.683l-3.88-2.312-2.355-2.339L0 20.694V.004h9.896l2.346 2.331 2.345 2.331h10.61c10.448 0 10.611-.001 10.654-.08.028-.052.043-.858.043-2.33V.003H53.57l.01 2.32.012 2.321 2.323.021 2.324.02.011 1.228c.006.675.024 1.227.04 1.227.017 0 .592-.557 1.278-1.237l1.247-1.238h5.224l2.346-2.33L70.73.003h9.855v2.251c0 1.473.014 2.28.043 2.331.041.078.117.08 2.873.08h2.831l2.334 2.32L91 9.308v15.517l-3.89 2.587-3.89 2.587-2.602-.001h-2.603l-.012-1.235c-.006-.679-.025-1.247-.041-1.264-.017-.016-.83.54-1.81 1.235l-1.78 1.263h-4.7V28.76c0-.966-.012-1.238-.053-1.238-.029 0-.612.557-1.296 1.238l-1.245 1.237h-8.341l-1.265-1.257c-.695-.692-1.278-1.243-1.296-1.225-.018.017-.135.541-.26 1.164a98.587 98.587 0 01-.25 1.225l-.022.093h-7.281l-1.245-1.237c-.684-.681-1.268-1.238-1.296-1.238-.04 0-.052.272-.052 1.238v1.237h-3.652c-2.008 0-3.651-.005-3.651-.012 0-.065-.503-2.482-.52-2.499-.013-.012-.597.548-1.298 1.244l-1.274 1.267H21.827l-1.245-.495a33.152 33.152 0 00-1.287-.495c-.025 0-.041.195-.041.495v.495h-6.785l-3.88-2.313zm3.88-7.258V17.6l-2.324-.02-2.324-.02v-5.117l2.324-.02 2.323-.02V6.748l-2.323-.02-2.324-.02-.02-2.311-.022-2.31H2.096l-.01 8.786-.011 8.786 1.815 1.806 1.815 1.806 3.382-.01 3.382-.01v-2.827zm21.61 1.04l1.814-1.805-.01-6.456-.011-6.455-2.853-.01-2.852-.01-.01 5.414-.011 5.415h-2.034l-.02-5.404-.021-5.405-2.853-.01-2.853-.01-.01 5.414-.01 5.415h-2.034l-.02-5.404-.021-5.405-2.853-.01-2.853-.01v16.543h17.7l1.814-1.806zM43.673 15V6.75l-2.853-.011-2.852-.01v16.543l2.852-.01 2.853-.01V15zm12.47 5.426v-2.847l-2.314-.01-2.313-.01v-5.117l2.313-.01 2.314-.01V6.73l-2.314-.011-2.313-.01-.02-2.311-.022-2.31H45.79l-.011 8.787-.01 8.787 1.815 1.805 1.815 1.805h6.744v-2.846zm14.565 0v-2.847h-3.357c-3.023 0-3.36-.007-3.382-.066-.033-.085-.033-4.94 0-5.026.023-.059.36-.065 3.382-.065h3.357V6.729H61.85l-1.795 1.785-1.795 1.784v9.404l1.795 1.785 1.795 1.785h8.859v-2.847zm7.811-2.569l.01-5.414h4.648l.02 5.404.022 5.404h5.684l.011-6.455.01-6.455-1.814-1.806-1.815-1.806h-3.347c-2.749 0-3.354-.01-3.392-.056-.033-.038-.05-.73-.057-2.32l-.01-2.265h-5.686l-.01 10.54c-.006 5.797-.002 10.564.009 10.592.015.04.626.052 2.863.052h2.844l.01-5.415zM43.674 3.367v-1.28H37.99l-.01 1.238c-.007.68-.003 1.26.008 1.29.017.041.596.05 2.854.041l2.833-.01v-1.28z" fill="#242021"/></g><defs><clipPath id="clip0"><path fill="#fff" d="M0 0h91v30H0z"/></clipPath></defs></svg>