<svg width="140" height="24" viewBox="0 0 140 24" fill="none" xmlns="http://www.w3.org/2000/svg"><g clip-path="url(#clip0)" fill="#0080FF"><path d="M11.759 23.99v-4.665c4.87 0 8.628-4.877 6.75-10.037a6.967 6.967 0 00-1.596-2.549 6.833 6.833 0 00-2.51-1.62 7.154 7.154 0 00-6.667.826 7.334 7.334 0 00-2.3 2.623 7.462 7.462 0 00-.843 3.406H0C0 4.198 7.446-1.952 15.586.594c1.75.558 3.34 1.537 4.636 2.854a11.588 11.588 0 012.81 4.709c2.505 8.27-3.55 15.834-11.273 15.834z"/><path d="M11.828 19.324H7.236V14.73h4.592v4.594zM7.236 22.93h-3.48v-3.606h3.48v3.606zm-3.48-3.606H.839v-2.968h2.919v2.968zm38.202-12.37c-1.322-.92-3.062-1.42-5.01-1.42h-4.244V19.32h4.245c1.948 0 3.618-.495 5.01-1.485a5.392 5.392 0 001.74-2.19c.419-.92.626-2.05.626-3.253 0-1.202-.209-2.332-.626-3.181-.42-1.054-.976-1.76-1.741-2.256zm-6.749.92h1.322c1.461 0 2.713.283 3.687.919 1.044.636 1.537 1.845 1.537 3.605 0 1.761-.559 3.04-1.537 3.747-.904.567-2.087.919-3.619.919h-1.39v-9.19zm12.107-2.545a1.396 1.396 0 00-1.044.426 1.274 1.274 0 00-.487 1.06c0 .393.154.77.428 1.05a1.45 1.45 0 001.033.434c.388 0 .76-.156 1.033-.435.275-.278.428-.656.428-1.05a1.458 1.458 0 00-.419-1.06c-.208-.283-.558-.425-.978-.425h.006zM46.053 9.57h2.435v9.685h-2.425V9.57h-.01zm11.143.852c-.699-.636-1.537-1.06-2.436-1.06a4.249 4.249 0 00-1.786.35 4.307 4.307 0 00-1.485 1.069 4.965 4.965 0 00-1.321 3.463c0 1.344.419 2.545 1.257 3.464.838.92 1.948 1.344 3.271 1.344a3.81 3.81 0 002.365-.778v.212c0 .777-.208 1.419-.626 1.844-.417.426-.978.636-1.739.636-1.118 0-1.81-.426-2.643-1.626l-1.677 1.626.07.071c.348.495.904.993 1.6 1.484.695.491 1.6.71 2.643.71 1.462 0 2.575-.426 3.41-1.344.833-.918 1.32-2.05 1.32-3.535V9.57h-2.362v.852h.14-.001zm-.625 5.725c-.42.495-.978.71-1.677.71-.698 0-1.257-.212-1.676-.71-.42-.498-.626-1.135-.626-1.908 0-.774.222-1.418.641-1.913.42-.495.978-.71 1.677-.71.698 0 1.257.212 1.676.71.42.498.626 1.135.626 1.909 0 .773-.208 1.418-.626 1.908l-.015.004zm5.094-6.578h2.436v9.684H61.65V9.57l.015-.001zm1.168-4.24a1.407 1.407 0 00-1.044.424 1.451 1.451 0 00-.417 1.06c0 .394.154.772.428 1.05a1.45 1.45 0 001.033.435c.388 0 .76-.157 1.034-.435s.428-.656.428-1.05a1.47 1.47 0 00-.418-1.06 1.424 1.424 0 00-1.045-.424h.001zm6.468 1.625h-2.363V9.57h-1.397v2.191h1.397v4.03c0 1.277.28 2.191.766 2.686.486.495 1.397.778 2.575.778.396.012.792-.012 1.183-.071h.14v-2.192l-.838.07c-.56 0-.978-.07-1.118-.283-.208-.212-.28-.636-.28-1.277v-3.67h2.228V9.64h-2.22L69.3 6.954zm13.498-1.42h2.436V19.32h-2.433V5.543l-.003-.008zm26.723 10.33a8.089 8.089 0 01-1.183 1.135 2.342 2.342 0 01-2.204.144 2.376 2.376 0 01-.786-.576c-.488-.567-.699-1.202-.699-2.05 0-.849.208-1.484.699-2.05a2.128 2.128 0 011.739-.778c.766 0 1.6.495 2.296 1.344l1.6-1.561c-1.044-1.344-2.366-1.98-3.967-1.98-1.322 0-2.435.496-3.409 1.485a5.18 5.18 0 00-1.397 3.605c0 1.42.487 2.686 1.397 3.606.433.478.96.857 1.548 1.113a4.467 4.467 0 001.861.371c1.74 0 3.131-.778 4.105-2.19l-1.6-1.627v.008zm9.811-4.886a3.672 3.672 0 00-1.397-1.135 4.48 4.48 0 00-2.017-.426c-1.322 0-2.436.495-3.271 1.484a5.734 5.734 0 00-1.184 3.606c0 1.484.42 2.686 1.322 3.606.903.919 2.018 1.419 3.479 1.419 1.6 0 2.923-.636 3.967-1.98l.07-.07-1.6-1.562c-.14.212-.348.354-.559.568a2.11 2.11 0 01-.699.495c-.362.201-.77.3-1.183.284a2.654 2.654 0 01-1.677-.568c-.419-.353-.626-.851-.698-1.484h6.402v-.92a5.349 5.349 0 00-.28-1.844 3.219 3.219 0 00-.698-1.484l.023.011zm-5.218 2.268c.106-.428.322-.82.626-1.136a1.673 1.673 0 011.257-.495c.559 0 1.044.142 1.322.495.28.284.419.71.488 1.136h-3.693zm14.474-2.9c-.699-.635-1.74-.919-2.992-.919-.765.022-1.52.19-2.224.497-.626.353-1.258.851-1.6 1.56l1.537 1.485c.626-1.06 1.322-1.42 2.296-1.42.455-.011.9.14 1.257.427a1.3 1.3 0 01.488 1.06v.495a5.26 5.26 0 00-1.74-.284c-1.183 0-2.157.284-2.923.851-.765.568-1.118 1.42-1.118 2.404 0 .92.28 1.626.904 2.19.625.566 1.398.779 2.296.779.898 0 1.74-.354 2.575-.994v.778h2.366v-6.22c0-1.136-.348-2.051-1.118-2.687l-.004-.001zm-4.241 5.232c.279-.211.626-.284 1.118-.284a5.84 5.84 0 011.809.354v.92a3.045 3.045 0 01-2.087.777c-.419 0-.766-.071-.978-.284-.213-.213-.348-.426-.348-.71a1.157 1.157 0 01.487-.777l-.001.004zm14.608-5.09c-.699-.777-1.6-1.135-2.783-1.135-.975 0-1.74.284-2.296.852v-.568h-2.367v9.684h2.435v-5.369c0-.71.14-1.344.488-1.766a1.753 1.753 0 011.397-.636c.239-.012.477.033.695.132.219.098.411.248.563.435.327.452.498 1 .487 1.561v5.655H140V13.67c-.07-1.344-.418-2.404-1.044-3.181zm-59.145-.141c-.699-.636-1.74-.92-2.992-.92a6.011 6.011 0 00-2.227.495c-.626.354-1.257.852-1.6 1.561l1.537 1.484c.626-1.06 1.322-1.419 2.296-1.419.455-.012.9.139 1.257.426a1.275 1.275 0 01.488 1.06v.495a5.253 5.253 0 00-1.74-.284c-1.183 0-2.157.284-2.922.852-.766.568-1.118 1.419-1.118 2.404 0 .92.28 1.626.904 2.19.624.565 1.397.778 2.295.778.899 0 1.74-.353 2.575-.993v.777h2.366v-6.219c0-1.135-.42-2.05-1.118-2.686l-.001-.001zm-4.313 5.231c.279-.211.626-.284 1.117-.284a5.84 5.84 0 011.81.354v.92a3.046 3.046 0 01-2.088.777c-.419 0-.765-.071-.978-.284-.212-.213-.348-.426-.348-.71a2.11 2.11 0 01.488-.777l-.001.004zm18.444 3.955a6.884 6.884 0 01-3.868-1.19 7.046 7.046 0 01-2.565-3.172 7.171 7.171 0 01-.397-4.085 7.104 7.104 0 011.904-3.62A6.929 6.929 0 0192.58 5.53a6.862 6.862 0 014.022.402 6.985 6.985 0 013.125 2.604 7.146 7.146 0 011.173 3.928 7.15 7.15 0 01-2.045 4.99 6.932 6.932 0 01-4.913 2.079zm0-11.733a4.475 4.475 0 00-2.515.77 4.58 4.58 0 00-1.67 2.06 4.661 4.661 0 00-.26 2.655 4.617 4.617 0 001.236 2.354 4.503 4.503 0 002.315 1.26 4.46 4.46 0 002.615-.259 4.54 4.54 0 002.032-1.69 4.645 4.645 0 00.764-2.553 4.647 4.647 0 00-.341-1.76 4.59 4.59 0 00-.98-1.491 4.51 4.51 0 00-1.47-.996 4.454 4.454 0 00-1.732-.348"/></g><defs><clipPath id="clip0"><path fill="#fff" d="M0 0h140v24H0z"/></clipPath></defs></svg>