<svg width="120" height="39" viewBox="0 0 120 39" fill="none" xmlns="http://www.w3.org/2000/svg"><path d="M24.784 7.656c-1.28-1.458-3.592-2.083-6.55-2.083H9.646A1.23 1.23 0 008.432 6.61L4.86 29.286a.737.737 0 00.728.851h5.3l1.332-8.444-.041.265a1.226 1.226 0 011.21-1.037h2.518c4.949 0 8.824-2.01 9.955-7.825.034-.172.063-.34.088-.503.336-2.149-.002-3.611-1.165-4.936" fill="#003087"/><path d="M89.675 18.447c-.324 2.127-1.949 2.127-3.52 2.127h-.895l.628-3.972a.494.494 0 01.488-.417h.41c1.07 0 2.08 0 2.601.61.311.364.405.905.288 1.652zm-.684-5.552h-5.928a.825.825 0 00-.814.696l-2.395 15.198a.495.495 0 00.487.57h3.042a.577.577 0 00.57-.485l.68-4.31a.824.824 0 01.813-.696h1.875c3.905 0 6.158-1.888 6.747-5.634.265-1.637.01-2.924-.756-3.825-.843-.99-2.337-1.515-4.32-1.515" fill="#009CDE"/><path d="M47.398 18.446c-.324 2.128-1.95 2.128-3.521 2.128h-.894l.627-3.973a.494.494 0 01.488-.416h.41c1.07 0 2.08 0 2.601.609.312.365.406.906.289 1.652zm-.684-5.551h-5.928a.824.824 0 00-.814.695l-2.396 15.2a.492.492 0 00.488.57h2.83c.406 0 .75-.294.814-.695l.647-4.1a.823.823 0 01.813-.695h1.876c3.905 0 6.158-1.89 6.746-5.635.266-1.637.011-2.924-.755-3.825-.843-.99-2.337-1.515-4.32-1.515h-.001zm13.761 11.008c-.275 1.622-1.561 2.71-3.203 2.71-.824 0-1.483-.264-1.907-.766-.42-.497-.577-1.205-.444-1.993.255-1.608 1.563-2.731 3.18-2.731.807 0 1.46.267 1.893.773.435.51.606 1.222.481 2.007zm3.956-5.525h-2.838a.494.494 0 00-.49.418l-.123.793-.2-.287c-.614-.892-1.984-1.191-3.352-1.191-3.136 0-5.814 2.377-6.335 5.709-.272 1.663.113 3.252 1.057 4.361.866 1.019 2.101 1.443 3.574 1.443 2.528 0 3.93-1.623 3.93-1.623l-.127.788a.494.494 0 00.488.571h2.556c.405 0 .75-.294.814-.695l1.534-9.716a.494.494 0 00-.489-.57" fill="#003087"/><path d="M102.755 23.903c-.276 1.622-1.562 2.71-3.204 2.71-.823 0-1.483-.264-1.906-.766-.42-.497-.578-1.205-.445-1.993.255-1.608 1.563-2.731 3.181-2.731.806 0 1.46.267 1.892.773.435.51.606 1.222.482 2.007zm3.955-5.525h-2.838a.495.495 0 00-.489.418l-.124.793-.199-.287c-.614-.892-1.984-1.191-3.353-1.191-3.134 0-5.813 2.377-6.335 5.709-.271 1.663.115 3.252 1.058 4.361.866 1.019 2.101 1.443 3.574 1.443 2.529 0 3.931-1.623 3.931-1.623l-.127.788a.492.492 0 00.487.57h2.554a.825.825 0 00.815-.694l1.535-9.716a.504.504 0 00-.113-.398.496.496 0 00-.376-.173" fill="#009CDE"/><path d="M79.548 18.378h-2.854a.82.82 0 00-.68.362l-3.936 5.796-1.668-5.57a.825.825 0 00-.79-.588h-2.803a.494.494 0 00-.468.654l3.14 9.221-2.954 4.17a.495.495 0 00.404.779h2.85a.825.825 0 00.677-.354l9.487-13.694a.494.494 0 00-.405-.776z" fill="#003087"/><path d="M110.055 13.313l-2.434 15.476a.502.502 0 00.113.398.49.49 0 00.376.173h2.446c.405 0 .75-.295.814-.695l2.399-15.2a.487.487 0 00-.113-.397.49.49 0 00-.376-.173h-2.737a.495.495 0 00-.488.417" fill="#009CDE"/><path d="M24.784 7.656c-1.28-1.458-3.592-2.083-6.55-2.083H9.646A1.23 1.23 0 008.432 6.61L4.86 29.286a.737.737 0 00.728.851h5.3l1.332-8.444-.041.265a1.226 1.226 0 011.21-1.037h2.518c4.949 0 8.824-2.01 9.955-7.825.034-.172.063-.34.088-.503.336-2.149-.002-3.611-1.165-4.936" fill="#003087"/><path d="M13.648 12.621a1.076 1.076 0 011.061-.907h6.732c.797 0 1.54.052 2.22.16.371.06.739.143 1.1.247.41.115.808.274 1.186.472.338-2.15-.002-3.612-1.164-4.937-1.28-1.457-3.592-2.082-6.55-2.082H9.644A1.23 1.23 0 008.432 6.61L4.857 29.284a.737.737 0 00.727.852h5.302l1.331-8.445 1.43-9.07z" fill="#003087"/><path d="M25.948 12.592c-.026.169-.055.336-.088.503-1.132 5.814-5.006 7.825-9.955 7.825h-2.52a1.225 1.225 0 00-1.208 1.037l-1.29 8.178-.367 2.32a.643.643 0 00.637.747h4.469c.528 0 .978-.386 1.061-.907l.044-.228.842-5.338.053-.295a1.075 1.075 0 011.063-.907h.668c4.329 0 7.718-1.758 8.709-6.844.413-2.125.199-3.9-.894-5.147a4.267 4.267 0 00-1.224-.944z" fill="#009CDE"/><path d="M24.762 12.12a7.786 7.786 0 00-.534-.137 9.465 9.465 0 00-.567-.107 13.88 13.88 0 00-2.221-.162h-6.73a1.073 1.073 0 00-1.062.907l-1.431 9.072-.041.263a1.225 1.225 0 011.209-1.037h2.52c4.948 0 8.823-2.01 9.954-7.824.034-.172.062-.338.088-.503a6.108 6.108 0 00-1.185-.472" fill="#012169"/></svg>