<svg width="120" height="31" viewBox="0 0 120 31" fill="none" xmlns="http://www.w3.org/2000/svg"><g clip-path="url(#clip0)"><path d="M40.876 19.86v-8.903a.994.994 0 011.986 0v8.902a.994.994 0 01-.993.993c-.514 0-.993-.445-.993-.993zm11.367.376l-4.314-6.882v6.505a.994.994 0 01-1.986 0v-8.628c0-.72.582-1.336 1.336-1.336h.068c.445 0 .89.24 1.13.617l4.28 6.78v-6.404a.994.994 0 011.986 0v8.629c0 .719-.582 1.335-1.336 1.335-.479 0-.924-.205-1.164-.616zm9.416-8.423v8.149a.92.92 0 01-.924.924h-.137a.92.92 0 01-.925-.924v-8.15H57.38a.92.92 0 01-.924-.924.92.92 0 01.924-.924h6.609a.92.92 0 01.924.924.92.92 0 01-.924.925H61.66zm4.828 8.149V10.82c0-.48.411-.89.89-.89h5.992c.48 0 .89.41.89.89 0 .48-.41.89-.89.89h-4.896v2.534h4.212c.479 0 .89.41.89.89 0 .48-.411.89-.89.89h-4.212v2.98h4.896c.48 0 .89.41.89.89 0 .479-.41.89-.89.89h-5.992c-.479.068-.89-.308-.89-.822zm16.162.308l-1.576-3.527h-2.43v3.15a.994.994 0 01-.994.993h-.034a.994.994 0 01-.993-.993v-8.936c0-.548.445-.993.993-.993h3.63c2.602 0 3.8 1.643 3.8 3.39 0 1.472-.787 2.602-1.986 3.047l1.37 3.082c.274.65-.171 1.37-.89 1.37-.377 0-.754-.206-.89-.583zm-1.37-8.594h-2.602v3.253h2.636c1.13 0 1.78-.582 1.78-1.61-.034-.856-.684-1.643-1.814-1.643zm13.217 8.08a4.436 4.436 0 01-3.116 1.302c-1.164 0-2.26-.377-3.082-1.233-1.198-1.198-1.37-2.636-1.37-4.417 0-1.78.172-3.253 1.37-4.417.822-.822 1.918-1.233 3.082-1.233s2.294.446 3.116 1.267c.273.308.513.617.684.993.308.65-.17 1.37-.89 1.37-.41 0-.753-.24-.924-.617-.069-.205-.206-.376-.343-.547-.342-.445-.959-.685-1.643-.685-.617 0-1.233.274-1.678.719-.753.787-.753 2.123-.753 3.15 0 .993 0 2.363.753 3.15.445.445 1.061.72 1.678.72.684 0 1.3-.24 1.643-.686.137-.17.274-.376.343-.582.136-.376.513-.616.924-.616.72 0 1.198.719.89 1.37a3.42 3.42 0 01-.684.992zm10.648.069c-.822.822-1.986 1.233-3.15 1.233s-2.294-.411-3.15-1.233c-1.198-1.198-1.37-2.636-1.37-4.417 0-1.78.206-3.253 1.37-4.417.822-.822 1.986-1.233 3.15-1.233s2.294.411 3.15 1.233c1.199 1.198 1.37 2.636 1.37 4.417.034 1.78-.171 3.253-1.37 4.417zm-1.404-7.533a2.499 2.499 0 00-1.712-.719c-.616 0-1.301.274-1.712.72-.753.787-.787 2.122-.787 3.15 0 .992.034 2.328.787 3.115a2.5 2.5 0 001.712.72c.617 0 1.301-.275 1.712-.72.754-.787.788-2.123.788-3.116 0-1.027-.034-2.397-.788-3.15zm14.313 7.601V13.08l-2.568 6.95c-.137.411-.548.685-.993.685-.445 0-.822-.274-.993-.685l-2.568-7.053v6.916a.957.957 0 01-.959.96.957.957 0 01-.959-.96v-8.457a1.52 1.52 0 011.507-1.506h.137a1.47 1.47 0 011.404.993l2.499 6.78 2.534-6.78a1.516 1.516 0 011.404-.993 1.52 1.52 0 011.506 1.506v8.457a.957.957 0 01-.958.96c-.582 0-.993-.412-.993-.96zM27.009 0H3.895C1.74 0 .027 1.712.027 3.835v23.112a3.843 3.843 0 003.87 3.869h23.111a3.829 3.829 0 003.835-3.835V3.87c0-2.158-1.712-3.87-3.833-3.87zm-7.465 5.65a1.01 1.01 0 011.027-1.028 1.01 1.01 0 011.027 1.028v13.73c0 .582-.445 1.027-1.027 1.027a1.009 1.009 0 01-1.027-1.027V5.65zm-5.136-.514c0-.582.445-1.027 1.027-1.027.582 0 1.027.445 1.027 1.027V20.03a1.01 1.01 0 01-1.027 1.028 1.009 1.009 0 01-1.027-1.028V5.136zm-5.136.514a1.01 1.01 0 011.027-1.028 1.01 1.01 0 011.027 1.028v13.73c0 .582-.445 1.027-1.027 1.027a1.009 1.009 0 01-1.027-1.027V5.65zM4.136 7.704c0-.582.445-1.027 1.027-1.027a1.01 1.01 0 011.028 1.027v9.245a1.01 1.01 0 01-1.028 1.027 1.009 1.009 0 01-1.027-1.027V7.704zm22.256 15.682c-.171.137-3.972 3.321-10.957 3.321-6.985 0-10.785-3.184-10.956-3.321a.997.997 0 01-.103-1.438.997.997 0 011.438-.103c.068 0 3.458 2.808 9.621 2.808 6.232 0 9.588-2.808 9.588-2.842.445-.377 1.095-.308 1.438.103.41.445.342 1.095-.069 1.472zm.343-6.437a1.01 1.01 0 01-1.028 1.027 1.009 1.009 0 01-1.027-1.027V7.704c0-.582.445-1.027 1.027-1.027.582 0 1.027.445 1.027 1.027v9.245z" fill="#000"/></g><defs><clipPath id="clip0"><path fill="#fff" d="M0 0h120v30.816H0z"/></clipPath></defs></svg>