<svg width="110" height="35" viewBox="0 0 110 35" fill="none" xmlns="http://www.w3.org/2000/svg"><path d="M57.972 8.626a2.229 2.229 0 01-2.233 2.233 2.228 2.228 0 01-2.233-2.233c0-1.238.962-2.234 2.233-2.234 1.272.035 2.233 1.031 2.233 2.234zm-9.207 4.502v.55s-1.065-1.376-3.332-1.376c-3.744 0-6.665 2.853-6.665 6.805 0 3.918 2.886 6.804 6.665 6.804 2.302 0 3.332-1.409 3.332-1.409v.584c0 .275.207.48.481.48h2.782v-12.92h-2.782a.494.494 0 00-.481.482zm0 8.281c-.515.757-1.546 1.41-2.782 1.41-2.199 0-3.883-1.375-3.883-3.712s1.684-3.712 3.883-3.712c1.202 0 2.302.688 2.782 1.41v4.604zm5.325-8.763h3.298v12.922H54.09V12.646zm49.264-.344c-2.268 0-3.333 1.376-3.333 1.376V6.426h-3.298v19.14h2.783a.49.49 0 00.48-.48v-.584s1.066 1.409 3.333 1.409c3.745 0 6.664-2.886 6.664-6.804s-2.919-6.806-6.629-6.806zm-.55 10.482c-1.272 0-2.268-.652-2.783-1.409V16.77c.515-.687 1.615-1.409 2.783-1.409 2.198 0 3.882 1.375 3.882 3.712 0 2.336-1.683 3.711-3.882 3.711zm-7.798-4.88v7.698h-3.299v-7.32c0-2.13-.687-2.99-2.54-2.99-.997 0-2.028.516-2.681 1.272v9.004h-3.297V12.646h2.61c.274 0 .48.241.48.482v.55c.963-.997 2.234-1.376 3.504-1.376 1.444 0 2.646.414 3.608 1.238 1.168.962 1.615 2.2 1.615 4.365zm-19.823-5.602c-2.267 0-3.332 1.376-3.332 1.376V6.426h-3.298v19.14h2.782c.275 0 .482-.24.482-.48v-.584s1.065 1.409 3.332 1.409c3.745 0 6.664-2.886 6.664-6.804.035-3.918-2.885-6.806-6.63-6.806zm-.55 10.482c-1.27 0-2.267-.652-2.782-1.409V16.77c.515-.687 1.615-1.409 2.782-1.409 2.2 0 3.882 1.375 3.882 3.712 0 2.336-1.683 3.711-3.882 3.711zm-8.931-10.482c.996 0 1.511.173 1.511.173v3.058s-2.748-.928-4.466 1.031v9.038H59.45V12.646h2.783c.275 0 .48.24.48.481v.55c.62-.721 1.96-1.375 2.99-1.375zM31.451 24.4c-.172-.412-.344-.859-.516-1.237-.275-.618-.55-1.203-.79-1.753l-.034-.034a358.33 358.33 0 00-7.593-15.532l-.103-.207a67.385 67.385 0 01-.824-1.615c-.344-.62-.687-1.272-1.237-1.89C19.256.755 17.675 0 15.993 0c-1.718 0-3.264.756-4.397 2.061-.516.619-.894 1.272-1.237 1.89-.268.542-.543 1.08-.824 1.616l-.103.207C6.786 10.928 4.21 16.15 1.839 21.306l-.034.068c-.24.551-.516 1.135-.79 1.753-.172.378-.344.79-.515 1.237-.447 1.271-.585 2.474-.413 3.712a7.303 7.303 0 004.466 5.705 7.05 7.05 0 002.783.55c.275 0 .618-.035.893-.07a9.07 9.07 0 003.436-1.167c1.409-.79 2.748-1.924 4.26-3.574 1.511 1.65 2.885 2.783 4.26 3.574a9.074 9.074 0 003.435 1.168c.275.035.619.069.894.069.962 0 1.923-.172 2.782-.55 2.405-.963 4.088-3.162 4.466-5.705.273-1.203.136-2.405-.31-3.677zm-15.494 1.787c-1.855-2.337-3.058-4.536-3.47-6.391-.171-.79-.206-1.478-.102-2.097a3.33 3.33 0 01.55-1.443c.652-.928 1.751-1.512 3.022-1.512 1.272 0 2.405.55 3.024 1.512.275.412.48.894.55 1.443.103.62.068 1.34-.103 2.097-.414 1.82-1.616 4.02-3.47 6.391zm13.707 1.615a5.107 5.107 0 01-3.126 4.022 5.2 5.2 0 01-2.61.343c-.86-.103-1.719-.378-2.612-.893-1.236-.688-2.473-1.753-3.916-3.334 2.267-2.784 3.641-5.327 4.157-7.595a8.6 8.6 0 00.171-2.921 5.573 5.573 0 00-.927-2.337c-1.066-1.547-2.852-2.44-4.844-2.44-1.992 0-3.779.928-4.844 2.44a5.579 5.579 0 00-.927 2.337 7.14 7.14 0 00.171 2.922c.515 2.267 1.924 4.845 4.157 7.628-1.409 1.581-2.68 2.647-3.917 3.334-.893.516-1.752.79-2.61.893a5.496 5.496 0 01-2.611-.343 5.107 5.107 0 01-3.126-4.021 5.687 5.687 0 01.31-2.68c.102-.344.274-.688.446-1.1.24-.55.514-1.135.79-1.719l.034-.068a374.82 374.82 0 017.558-15.43l.103-.206c.275-.515.55-1.065.824-1.581.275-.55.584-1.066.962-1.513.722-.824 1.683-1.27 2.749-1.27 1.065 0 2.027.446 2.748 1.27.378.448.687.964.962 1.513.275.516.55 1.066.824 1.58l.104.207a455.01 455.01 0 017.523 15.464v.035c.275.55.516 1.168.79 1.719.172.412.344.755.447 1.099.274.893.377 1.752.24 2.645z" fill="#FF5A5F"/></svg>