<svg width="120" height="29" viewBox="0 0 120 29" fill="none" xmlns="http://www.w3.org/2000/svg"><g clip-path="url(#clip0)" fill="#7289DA"><path d="M23.56 11.802c-.809 0-1.447.695-1.447 1.56 0 .865.652 1.56 1.447 1.56.808 0 1.447-.695 1.447-1.56 0-.865-.653-1.56-1.447-1.56zm-5.178 0c-.808 0-1.447.695-1.447 1.56 0 .865.653 1.56 1.447 1.56.809 0 1.447-.695 1.447-1.56.014-.865-.638-1.56-1.447-1.56z"/><path d="M30.454 0H11.447a2.912 2.912 0 00-2.908 2.908v19.007a2.912 2.912 0 002.908 2.908h16.085l-.752-2.596 1.816 1.674 1.716 1.575 3.064 2.652V2.908A2.933 2.933 0 0030.454 0zM24.98 18.369s-.51-.61-.936-1.135c1.858-.525 2.567-1.674 2.567-1.674a8.119 8.119 0 01-1.631.837c-.71.298-1.39.483-2.057.61a9.937 9.937 0 01-3.674-.014 10.798 10.798 0 01-2.085-.61 8.312 8.312 0 01-1.035-.482c-.043-.028-.085-.043-.128-.071-.028-.014-.042-.028-.057-.028-.255-.142-.397-.242-.397-.242s.681 1.121 2.483 1.66a57.57 57.57 0 01-.95 1.163c-3.136-.1-4.327-2.142-4.327-2.142 0-4.524 2.042-8.198 2.042-8.198 2.043-1.518 3.972-1.476 3.972-1.476l.142.17c-2.553.724-3.716 1.845-3.716 1.845s.312-.17.837-.398c1.517-.666 2.723-.836 3.22-.893.085-.014.155-.029.24-.029a12.002 12.002 0 012.866-.028 11.79 11.79 0 014.27 1.348s-1.121-1.064-3.533-1.788l.199-.227s1.943-.042 3.972 1.476c0 0 2.042 3.674 2.042 8.198 0-.014-1.191 2.029-4.326 2.128zM46.398 6.071h-4.71v5.29l3.135 2.824V9.05h1.674c1.064 0 1.589.51 1.589 1.333v3.93c0 .822-.497 1.375-1.589 1.375h-4.823v2.993h4.71c2.524.014 4.893-1.248 4.893-4.142v-4.227c.014-2.95-2.355-4.241-4.88-4.241zm24.68 8.468V10.2c0-1.56 2.81-1.915 3.66-.355l2.596-1.05c-1.021-2.24-2.88-2.893-4.425-2.893-2.525 0-5.022 1.46-5.022 4.298v4.34c0 2.865 2.497 4.298 4.965 4.298 1.589 0 3.49-.78 4.539-2.823l-2.78-1.276c-.681 1.745-3.532 1.319-3.532-.199zm-8.58-3.745c-.98-.212-1.632-.567-1.675-1.177.057-1.46 2.313-1.518 3.632-.113L66.54 7.9c-1.305-1.589-2.78-2.014-4.298-2.014-2.312 0-4.553 1.305-4.553 3.773 0 2.397 1.844 3.688 3.872 4 1.035.142 2.184.553 2.156 1.262-.085 1.348-2.865 1.277-4.128-.255l-2.014 1.886c1.177 1.518 2.78 2.284 4.284 2.284 2.312 0 4.88-1.333 4.979-3.773.142-3.078-2.1-3.858-4.34-4.27zm-9.505 7.873h3.178V6.07h-3.178v12.596zM106.57 6.07h-4.71v5.29l3.135 2.824V9.05h1.674c1.064 0 1.589.51 1.589 1.333v3.93c0 .822-.497 1.375-1.589 1.375h-4.823v2.993h4.724c2.524.014 4.893-1.248 4.893-4.142v-4.227c0-2.95-2.369-4.241-4.893-4.241zM83.463 5.9c-2.61 0-5.206 1.418-5.206 4.326v4.298c0 2.88 2.61 4.326 5.234 4.326 2.61 0 5.206-1.447 5.206-4.326v-4.298c0-2.894-2.624-4.326-5.234-4.326zm2.042 8.624c0 .908-1.02 1.376-2.028 1.376-1.021 0-2.042-.44-2.042-1.376v-4.298c0-.922.993-1.418 1.985-1.418 1.036 0 2.085.44 2.085 1.418v4.298zm14.596-4.298c-.07-2.95-2.085-4.142-4.68-4.142h-5.036V18.68h3.22v-4h.567l2.922 4h3.972l-3.433-4.326c1.518-.482 2.468-1.802 2.468-4.128zm-4.624 1.702h-1.872V9.05h1.872c2 0 2 2.88 0 2.88z"/></g><defs><clipPath id="clip0"><path fill="#fff" d="M0 0h120v28.128H0z"/></clipPath></defs></svg>