<svg width="68" height="72" viewBox="0 0 68 72" fill="none" xmlns="http://www.w3.org/2000/svg"><path opacity=".5" d="M59.817 37.8c0 17.23-11.599 31.2-25.907 31.2S8.004 55.031 8.004 37.8c0-6.255-.205-14.258 2.426-19.14C15.048 10.09 24.796 8 33.91 8c9.115 0 19.65 2.712 24.268 11.282 2.63 4.883 1.639 12.263 1.639 18.518z" fill="#fff"/><path d="M25.247 41.438c0 .794-.426 1.438-.952 1.438s-.953-.644-.953-1.438c0-.794.427-1.438.953-1.438s.952.644.952 1.438zm17.625 0c0 .794.427 1.438.953 1.438s.952-.644.952-1.438c0-.794-.426-1.438-.952-1.438s-.953.644-.953 1.438zm-6.748 9.348c-1.588 1.278-3.732.639-4.287 0 .159.799.762 1.917 2.223 1.917 1.46 0 1.984-1.278 2.064-1.917z" fill="#160C4B"/><path fill-rule="evenodd" clip-rule="evenodd" d="M30.752 56.608a.556.556 0 01.663-.426l5.61 1.243a.56.56 0 01-.24 1.093l-5.61-1.243a.56.56 0 01-.423-.667z" fill="#160C4B"/><path d="M33.98 69.88c-11.05.128-19.16-10.12-21.832-15.26-.397-.763-.714-.878-.953-.718-.38.255-.106.772 0 1.038 1.334 3.132 3.15 5.78 3.89 6.711-2.604 4.346-3.466 8.682-3.572 10.306 4.319-4.282 8.68-4.074 10.32-3.435 12.862 6.711 20.007 1.997 24.056 0 3.239-1.598 8.283 1.518 10.4 3.276-.254-3.963-2.382-8.31-3.414-9.987 1.667-2.237 3.017-4.953 3.731-6.312.572-1.086.397-1.518.239-1.598-.381-.191-.847.4-1.032.72-1.191 1.997-8.019 15.1-21.833 15.26z" fill="#160C4B"/><path fill-rule="evenodd" clip-rule="evenodd" d="M61.099 13.514c3.985 5.082 2.136 14.81.307 19.468l.05.017-.037.001-4.437-.296v-.022c.864-10.047-.13-14.07-1.1-14.752-11.605 8.393-21.971 5.725-25.176 4.9-.872-.224-1.213-.312-.904-.002.942.942 3.085 2.073 4.613 2.88h.001c.346.183.661.349.923.492-12.598.146-17.663-5.924-19.152-7.709a7.124 7.124 0 00-.349-.4c-.726-.728-4.814-3.212-6.098 1.525-1.244 4.588-.456 9.97-.04 12.811.035.247.04.252.04.332L5.647 33h-.01C.194 20.41 4.284 13.35 7.973 10.703 7.974 4.521 15.517-1.5 25.067.667 37.301 4.157 41.023 3 45.402 1.64 47.17 1.09 49.044.509 51.629.185 63.497-1.299 67.492 6.502 68 10.543c-1.99-1.156-5.43 1.445-6.901 2.97zM30.87 4.02c-3.077-1.07-11.002-2.204-15.167 2.088-.922.95-2.007 2.73-2.007 2.73s-1.845 3.372-3.29 1.927C8.963 9.32 12.333 4.985 14.981 3.7c2.649-1.284 9.229-3.533 15.89.321z" fill="#160C4B"/><path d="M2 38.496C2 35.46 4.525 33 7.639 33H25.36c3.115 0 5.64 2.46 5.64 5.496v8.008C31 49.54 28.475 52 25.361 52H7.64C4.525 52 2 49.54 2 46.504v-8.008z" fill="#754FFE" fill-opacity=".2"/><path fill-rule="evenodd" clip-rule="evenodd" d="M25.361 36.14H7.64c-1.335 0-2.417 1.055-2.417 2.356v8.008c0 1.301 1.082 2.355 2.417 2.355h17.72c1.335 0 2.417-1.054 2.417-2.355v-8.008c0-1.301-1.082-2.355-2.417-2.355zM7.64 33C4.525 33 2 35.46 2 38.496v8.008C2 49.54 4.525 52 7.639 52H25.36c3.115 0 5.64-2.46 5.64-5.496v-8.008C31 35.46 28.475 33 25.361 33H7.64z" fill="#754FFE"/><path d="M0 37.857C0 37.384.424 37 .947 37h1.106c.523 0 .947.384.947.857v2.286c0 .473-.424.857-.947.857H.947C.424 41 0 40.616 0 40.143v-2.286z" fill="#754FFE"/><path d="M65 38.496C65 35.46 62.562 33 59.556 33H42.444C39.438 33 37 35.46 37 38.496v8.008C37 49.54 39.438 52 42.444 52h17.112C62.562 52 65 49.54 65 46.504v-8.008z" fill="#754FFE" fill-opacity=".2"/><path fill-rule="evenodd" clip-rule="evenodd" d="M42.444 36.14h17.112a2.344 2.344 0 012.333 2.356v8.008a2.344 2.344 0 01-2.333 2.355H42.444a2.344 2.344 0 01-2.333-2.355v-8.008a2.344 2.344 0 012.333-2.355zM59.556 33C62.562 33 65 35.46 65 38.496v8.008C65 49.54 62.562 52 59.556 52H42.444C39.438 52 37 49.54 37 46.504v-8.008C37 35.46 39.438 33 42.444 33h17.112z" fill="#754FFE"/><path d="M68 37.857c0-.473-.566-.857-1.263-.857h-1.474c-.698 0-1.263.384-1.263.857v2.286c0 .473.566.857 1.263.857h1.474c.698 0 1.263-.384 1.263-.857v-2.286zm-30 2.214C38 39.48 37.543 39 36.979 39H31.02c-.564 0-1.021.48-1.021 1.071v2.858c0 .591.457 1.071 1.021 1.071h5.958c.564 0 1.021-.48 1.021-1.071V40.07z" fill="#754FFE"/></svg>