<svg width="505" height="404" viewBox="0 0 505 404" fill="none" xmlns="http://www.w3.org/2000/svg"><path d="M381.132 225.728a4 4 0 01-4 4H40.227a4 4 0 01-4-4V22.756a4 4 0 014-4h336.905a4 4 0 014 4v202.972z" fill="#fff" stroke="#D2D3E7" stroke-miterlimit="10"/><path d="M36.227 46.093h344.905" stroke="#D2D3E6" stroke-miterlimit="10"/><path d="M60.597 33.293a6.537 6.537 0 01-6.535 6.538 6.536 6.536 0 01-6.534-6.538 6.536 6.536 0 016.534-6.539 6.537 6.537 0 016.535 6.539zm15.841 0a6.536 6.536 0 01-6.534 6.538 6.537 6.537 0 01-6.535-6.538 6.537 6.537 0 016.535-6.539 6.536 6.536 0 016.534 6.539zm15.841 0a6.537 6.537 0 01-6.535 6.538 6.537 6.537 0 01-6.535-6.538 6.537 6.537 0 016.535-6.539 6.537 6.537 0 016.535 6.539z" fill="#DDDEEE"/><path d="M74.47 103.984H56.087v-5.072H74.47v5.072zm138.223 0H87.867v-5.072h124.826v5.072zm46.212 0h-34.917v-5.072h34.917v5.072zm79.864 67.883h-34.917v-5.073h34.917v5.073zm-11.913-67.883h-60.36v-5.072h60.36v5.072zM92.852 117.56H74.47v-5.073h18.382v5.073zm93.959 0h-81.023v-5.073h81.023v5.073zm108.746 54.307h-81.024v-5.073h81.024v5.073zm-132.872-13.576H87.867v-5.073h74.818v5.073zm-21.529-27.155h-35.368v-5.073h35.368v5.073zm141.552 13.578H247.34v-5.073h35.368v5.073zm-11.867-13.578H151.443v-5.073h119.398v5.073zm-63.577 40.731H87.866v-5.073h119.398v5.073zm151.129-54.307h-95.791v-5.073h95.791v5.073zm-103.381 0H195.5v-5.073h59.512v5.073zm82.302 13.576h-59.513v-5.073h59.513v5.073zm-244.462 0H74.47v-5.073h18.382v5.073zM74.47 144.714H56.087v-5.073H74.47v5.073zm64.68 0H87.867v-5.073h51.283v5.073zm17.921 40.731h-51.283v-5.073h51.283v5.073zm147.851 13.576h-82.595v-5.072h82.595v5.072zm-58.765-13.576H165.89v-5.073h80.267v5.073zm-33.329 13.576h-66.154v-5.072h66.154v5.072zm145.566-13.576H255.585v-5.073h102.809v5.073zm-221.149 13.576h-31.457v-5.072h31.457v5.072zm121.66-40.73h-88.741v-5.073h88.741v5.073zm82.302 0h-74.711v-5.073h74.711v5.073zm-102.414-13.577h-88.6v-5.073h88.6v5.073zM74.47 158.291H56.087v-5.073H74.47v5.073zm0 13.576H56.087v-5.073H74.47v5.073zm18.382 13.578H74.47v-5.073h18.382v5.073zm0 13.576H74.47v-5.072h18.382v5.072zM70.62 75.826v1.584l-3.984 1.524 3.984 1.536v1.584l-5.904-2.304v-1.62l5.904-2.304zm2.048 7.368h-1.74l3.156-9.864h1.752l-3.168 9.864zm3.474-7.368l5.904 2.304v1.62l-5.904 2.304V80.47l3.984-1.536-3.984-1.524v-1.584z" fill="#E1E2F3"/><path d="M12.66 208.125h40.271c5.146 0 9.317 4.174 9.317 9.321v40.224l-9.472-8.7H12.66c-5.146 0-9.316-4.174-9.316-9.321v-22.203c0-5.147 4.17-9.321 9.316-9.321z" fill="#fff"/><path d="M12.66 208.125h40.271c5.146 0 9.317 4.174 9.317 9.321v40.224l-9.472-8.7H12.66c-5.146 0-9.316-4.174-9.316-9.321v-22.203c0-5.147 4.17-9.321 9.316-9.321z" stroke="#D2D3E7" stroke-miterlimit="10"/><path d="M42.01 229.288a4.052 4.052 0 108.102 0 4.052 4.052 0 10-8.101 0zm-14.09 0a4.052 4.052 0 108.101 0 4.052 4.052 0 10-8.101 0zm-14.089 0a4.052 4.052 0 108.101 0 4.052 4.052 0 10-8.1 0z" fill="#D2D3E6"/><path d="M420.582 226.017h43.797a7.523 7.523 0 007.521-7.525v-25.158a7.523 7.523 0 00-7.521-7.525h-43.797a7.523 7.523 0 00-7.522 7.525v25.158a7.524 7.524 0 007.522 7.525z" fill="#fff" stroke="#D2D3E7"/><path d="M432.247 197.455v1.224l-7.47 3.348 7.47 3.33v1.26l-8.856-4.014v-1.152l8.856-3.996zm1.883 10.728h-1.332l4.626-14.472h1.35l-4.644 14.472zm5.187-10.728l8.856 3.996v1.152l-8.856 4.014v-1.26l7.47-3.33-7.47-3.348v-1.224z" fill="#D2D3E7"/><path d="M255.271 139.852a2 2 0 00-2-2h-77.746a2 2 0 00-2 2v47.291a2 2 0 002 2h77.746a2 2 0 002-2v-47.291z" fill="#fff" stroke="#FF5938" stroke-miterlimit="10"/><path d="M181.876 142.722a2.097 2.097 0 11-4.194 0 2.097 2.097 0 114.194 0zm6.966 0a2.098 2.098 0 11-4.195.003 2.098 2.098 0 014.195-.003zm6.965 0a2.098 2.098 0 11-4.195.003 2.098 2.098 0 014.195-.003zm-3.33 14.537h4.687v18.148h-4.687v-7.341h-7.337v7.341h-4.687v-18.148h4.687v7.06h7.337v-7.06zm12.029 18.148v-14.274h-5.401v-3.874h15.642v3.874h-5.401v14.274h-4.84zm26.817-18.148h3.719v18.148h-4.178l-.025-8.309-3.439 8.309h-3.032l-3.464-8.207v8.207h-4.153v-18.148h3.745l5.426 12.387 5.401-12.387zm7.045 18.148v-18.148h4.789v14.273h7.668v3.875h-12.457z" fill="#FF5938"/><path d="M173.525 147.556h82.247" stroke="#FF5938" stroke-miterlimit="10"/><rect x="132.459" y="1.114" width="84.903" height="54.45" rx="1.5" fill="#fff" stroke="#FF5938"/><path d="M142.823 7.125a2.541 2.541 0 11-5.082 0 2.542 2.542 0 115.082 0zm7.853 0a2.541 2.541 0 11-5.082 0 2.542 2.542 0 115.082 0zm7.853 0a2.54 2.54 0 11-5.082 0 2.542 2.542 0 115.082 0zm-1.535 26.529v9.013c-.959.437-2.036.774-3.23 1.01a18.476 18.476 0 01-3.634.353c-1.951 0-3.65-.37-5.097-1.11-1.43-.741-2.532-1.802-3.306-3.182-.774-1.397-1.161-3.046-1.161-4.948 0-1.852.387-3.468 1.161-4.848a7.83 7.83 0 013.281-3.206c1.413-.758 3.061-1.136 4.946-1.136 1.295 0 2.515.168 3.658.505 1.161.336 2.103.799 2.827 1.388l-1.489 3.358c-.824-.539-1.623-.926-2.397-1.161a7.69 7.69 0 00-2.448-.379c-1.598 0-2.793.454-3.583 1.363-.774.892-1.161 2.264-1.161 4.116 0 1.918.404 3.34 1.211 4.266.824.926 2.086 1.389 3.785 1.389.791 0 1.582-.084 2.372-.252V36.86H149.6v-3.206h7.394zm10.9 10.376c-2.624 0-4.609-.656-5.955-1.97-1.346-1.329-2.019-3.273-2.019-5.831V25.827h4.618v10.578c0 1.296.286 2.29.858 2.98.589.69 1.422 1.035 2.498 1.035 1.06 0 1.876-.345 2.448-1.035.572-.707.858-1.7.858-2.98V25.827h4.668v10.402c0 2.524-.689 4.46-2.069 5.807-1.362 1.33-3.331 1.994-5.905 1.994zm11.077-.227V25.827h4.744v14.138h7.596v3.838h-12.34zm14.613-17.976h8.555c2.052 0 3.642.496 4.769 1.49 1.127.976 1.691 2.305 1.691 3.988 0 1.667-.572 2.996-1.716 3.99-1.144.993-2.726 1.49-4.744 1.49h-3.811v7.018h-4.744V25.827zm7.924 7.422c1.783 0 2.675-.63 2.675-1.893 0-.64-.219-1.12-.656-1.44-.421-.336-1.094-.504-2.019-.504h-3.18v3.837h3.18z" fill="#FF5938"/><path d="M133.345 12.104h83.131" stroke="#FF5938" stroke-width="1.474" stroke-miterlimit="10"/><rect x="372.155" y="38.542" width="108.457" height="68.312" rx="1.5" fill="#fff" stroke="#FF5938"/><path d="M372.155 52.405v.386h108.457v-.386H372.155z" stroke="#FF5938"/><path d="M384.011 46.109a3.313 3.313 0 11-6.625 0 3.314 3.314 0 116.625 0zm9.397 0a3.313 3.313 0 11-6.627 0 3.314 3.314 0 116.627 0zm9.395 0a3.313 3.313 0 11-6.625 0 3.314 3.314 0 116.625 0zm-8.117 42.228a18.65 18.65 0 01-4.871-.648c-1.603-.432-2.908-1.018-3.915-1.758l1.819-4.102a14.111 14.111 0 003.391 1.573c1.212.35 2.425.525 3.637.525 1.233 0 2.179-.165 2.836-.494.658-.35.987-.833.987-1.45 0-.555-.298-1.007-.894-1.357-.596-.37-1.716-.73-3.36-1.079-2.076-.411-3.689-.915-4.84-1.511-1.151-.617-1.962-1.337-2.435-2.16-.452-.822-.678-1.819-.678-2.99 0-1.337.38-2.54 1.14-3.609.761-1.09 1.829-1.933 3.206-2.529 1.377-.617 2.949-.925 4.716-.925 1.583 0 3.114.226 4.593.678 1.5.432 2.672 1.008 3.514 1.727l-1.787 4.102a11.537 11.537 0 00-3.052-1.542 9.743 9.743 0 00-3.206-.555c-1.048 0-1.891.206-2.528.617-.637.39-.955.925-.955 1.604 0 .37.113.678.339.925.226.246.647.493 1.264.74.616.226 1.541.473 2.774.74 1.993.432 3.555.956 4.685 1.573 1.151.596 1.963 1.306 2.436 2.128.472.802.709 1.768.709 2.9 0 2.138-.833 3.824-2.497 5.057-1.665 1.213-4.008 1.82-7.028 1.82zm23.423 0c-2.281 0-4.275-.463-5.98-1.388a9.86 9.86 0 01-3.915-3.979c-.904-1.706-1.356-3.68-1.356-5.921 0-2.22.452-4.174 1.356-5.86a9.66 9.66 0 013.915-3.948c1.705-.945 3.699-1.418 5.98-1.418 1.438 0 2.826.216 4.161.647 1.357.432 2.446 1.018 3.268 1.758l-1.757 4.102c-1.788-1.295-3.638-1.943-5.549-1.943-1.767 0-3.123.566-4.069 1.697-.945 1.11-1.418 2.765-1.418 4.965 0 2.22.473 3.896 1.418 5.027.946 1.13 2.302 1.696 4.069 1.696 1.911 0 3.761-.647 5.549-1.943l1.757 4.102c-.822.74-1.911 1.326-3.268 1.758a13.44 13.44 0 01-4.161.648zm17.908 0a18.65 18.65 0 01-4.871-.648c-1.603-.432-2.908-1.018-3.915-1.758l1.819-4.102a14.111 14.111 0 003.391 1.573c1.212.35 2.425.525 3.637.525 1.233 0 2.179-.165 2.836-.494.658-.35.987-.833.987-1.45 0-.555-.298-1.007-.894-1.357-.596-.37-1.716-.73-3.36-1.079-2.076-.411-3.689-.915-4.84-1.511-1.151-.617-1.962-1.337-2.435-2.16-.452-.822-.678-1.819-.678-2.99 0-1.337.38-2.54 1.14-3.609.761-1.09 1.829-1.933 3.206-2.529 1.377-.617 2.949-.925 4.716-.925 1.583 0 3.114.226 4.593.678 1.501.432 2.672 1.008 3.514 1.727l-1.787 4.102a11.522 11.522 0 00-3.052-1.542 9.743 9.743 0 00-3.206-.555c-1.048 0-1.891.206-2.528.617-.637.39-.955.925-.955 1.604 0 .37.113.678.339.925.226.246.647.493 1.264.74.616.226 1.541.473 2.774.74 1.993.432 3.555.956 4.685 1.573 1.151.596 1.963 1.306 2.436 2.128.472.802.709 1.768.709 2.9 0 2.138-.833 3.824-2.497 5.057-1.665 1.213-4.008 1.82-7.028 1.82zm20.71 0c-1.644 0-3.267-.216-4.87-.648-1.603-.432-2.908-1.018-3.915-1.758l1.819-4.102a14.093 14.093 0 003.391 1.573 13.07 13.07 0 003.637.525c1.233 0 2.178-.165 2.836-.494.657-.35.986-.833.986-1.45 0-.555-.298-1.007-.894-1.357-.596-.37-1.716-.73-3.36-1.079-2.075-.411-3.688-.915-4.839-1.511-1.151-.617-1.963-1.337-2.435-2.16-.452-.822-.679-1.819-.679-2.99a6.08 6.08 0 011.141-3.609c.76-1.09 1.829-1.933 3.206-2.529 1.377-.617 2.949-.925 4.716-.925 1.582 0 3.113.226 4.593.678 1.5.432 2.672 1.008 3.514 1.727l-1.788 4.102a11.531 11.531 0 00-3.051-1.542 9.748 9.748 0 00-3.206-.555c-1.048 0-1.891.206-2.528.617-.637.39-.955.925-.955 1.604 0 .37.113.678.339.925.226.246.647.493 1.263.74.617.226 1.542.473 2.775.74 1.993.432 3.555.956 4.685 1.573 1.151.596 1.963 1.306 2.435 2.128.473.802.709 1.768.709 2.9 0 2.138-.832 3.824-2.497 5.057-1.664 1.213-4.007 1.82-7.028 1.82z" fill="#FF5938"/><rect x="14.69" y="91.219" width="90.445" height="58.608" rx="1.5" fill="#fff" stroke="#FF5938"/><path d="M16.075 103.696v.386h89.059v-.386H16.075z" stroke="#FF5938"/><path d="M25.216 97.622a2.743 2.743 0 11-5.487.001 2.743 2.743 0 015.487-.001zm8.257 0a2.743 2.743 0 11-5.487.001 2.743 2.743 0 015.487-.001zm8.256 0a2.743 2.743 0 11-5.485 0 2.742 2.742 0 115.485 0zm-1.909 41.615c-2.465 0-4.62-.5-6.462-1.499a10.651 10.651 0 01-4.23-4.299c-.977-1.844-1.466-3.977-1.466-6.399 0-2.399.489-4.51 1.466-6.332.999-1.844 2.409-3.266 4.23-4.265 1.843-1.022 3.997-1.533 6.462-1.533 1.554 0 3.053.233 4.496.7 1.466.466 2.643 1.099 3.531 1.899l-1.899 4.432c-1.931-1.399-3.93-2.099-5.995-2.099-1.91 0-3.375.611-4.397 1.833-1.021 1.199-1.532 2.988-1.532 5.365 0 2.4.51 4.21 1.532 5.432 1.022 1.222 2.487 1.833 4.397 1.833 2.065 0 4.063-.7 5.995-2.099l1.899 4.432c-.888.8-2.065 1.433-3.53 1.9a14.545 14.545 0 01-4.497.699zm19.35 0a20.17 20.17 0 01-5.263-.699c-1.732-.467-3.142-1.1-4.23-1.9l1.965-4.432a15.248 15.248 0 003.664 1.699c1.31.378 2.62.567 3.93.567 1.333 0 2.354-.178 3.065-.533.71-.378 1.066-.9 1.066-1.567 0-.6-.322-1.088-.966-1.466-.644-.4-1.854-.789-3.63-1.166-2.243-.445-3.987-.989-5.23-1.633-1.244-.667-2.12-1.445-2.631-2.333-.489-.889-.733-1.966-.733-3.233 0-1.444.41-2.744 1.232-3.899.822-1.177 1.976-2.088 3.464-2.733 1.488-.666 3.187-.999 5.096-.999 1.71 0 3.364.244 4.963.733 1.621.466 2.887 1.088 3.797 1.866l-1.931 4.432a12.467 12.467 0 00-3.298-1.666c-1.155-.4-2.31-.6-3.464-.6-1.133 0-2.043.222-2.731.667-.689.422-1.033 1-1.033 1.733 0 .4.122.733.367.999.244.267.699.534 1.365.8.666.245 1.666.511 2.998.8 2.154.467 3.842 1.033 5.063 1.7 1.243.644 2.12 1.41 2.631 2.299.51.867.766 1.911.766 3.133 0 2.31-.9 4.132-2.698 5.465-1.798 1.311-4.33 1.966-7.594 1.966zm22.379 0c-1.776 0-3.53-.233-5.263-.699-1.732-.467-3.142-1.1-4.23-1.9l1.965-4.432a15.247 15.247 0 003.664 1.699c1.31.378 2.62.567 3.93.567 1.333 0 2.354-.178 3.065-.533.71-.378 1.066-.9 1.066-1.567 0-.6-.322-1.088-.966-1.466-.644-.4-1.854-.789-3.63-1.166-2.243-.445-3.987-.989-5.23-1.633-1.244-.667-2.12-1.445-2.631-2.333-.489-.889-.733-1.966-.733-3.233 0-1.444.41-2.744 1.232-3.899.822-1.177 1.977-2.088 3.464-2.733 1.488-.666 3.187-.999 5.096-.999 1.71 0 3.365.244 4.963.733 1.621.466 2.887 1.088 3.797 1.866l-1.931 4.432a12.465 12.465 0 00-3.298-1.666c-1.155-.4-2.31-.6-3.464-.6-1.132 0-2.043.222-2.731.667-.689.422-1.033 1-1.033 1.733 0 .4.122.733.367.999.244.267.7.534 1.365.8.666.245 1.666.511 2.998.8 2.154.467 3.841 1.033 5.063 1.7 1.243.644 2.12 1.41 2.631 2.299.51.867.766 1.911.766 3.133 0 2.31-.899 4.132-2.698 5.465-1.798 1.311-4.33 1.966-7.594 1.966z" fill="#FF5938"/><path d="M0 365.051h505" stroke="#383955" stroke-width="1.333" stroke-miterlimit="10"/><path d="M192.909 205.726c-2.277-3.673-3.796-10.759-3.036-17.595.759-6.838 1.012-17.22-7.594-17.726-8.603-.506-11.515 16.838-12.02 20.511-.506 3.671-15.817 5.95-28.092 2.127-12.275-3.825-35.178-8.205-45.268-5.672-10.09 2.531-6.345 11.342-6.345 11.342l.018.01c-6.96 4.898.683 11.099.683 11.099-7.087 6.414.788 13.19 5.793 13.854-.137.636-.186 1.301-.056 2.015 1.35 7.426 32.056 4.725 49.604 12.49 17.547 7.765 29.694 40.515 29.694 40.515l36.614-43.975s-17.717-25.321-19.995-28.995z" fill="#fff"/><path d="M133.436 206.445s-35.094-3.038-42.18 3.377c-7.087 6.414.787 13.19 5.793 13.853" stroke="#383955" stroke-width="1.333" stroke-miterlimit="10"/><path d="M133.436 198.681s-26.489-7.09-39.65-1.689c-12.21 5.013-2.53 12.831-2.53 12.831" stroke="#383955" stroke-width="1.333" stroke-miterlimit="10"/><path d="M90.554 198.713s-3.743-8.81 6.346-11.343c10.09-2.532 32.993 1.847 45.267 5.672 12.274 3.824 27.586 1.545 28.092-2.126.507-3.673 3.417-21.018 12.022-20.511 8.605.506 8.351 10.888 7.592 17.725-.759 6.837.759 13.923 3.037 17.596s19.994 28.994 19.994 28.994l-36.612 43.975s-12.149-32.748-29.696-40.513c-17.547-7.766-48.253-5.065-49.604-12.492-1.35-7.428 12.148-10.804 32.732-8.44" stroke="#383955" stroke-width="1.333" stroke-miterlimit="10"/><path d="M161.758 263.184l55.173-31.82s47.799 86.38 109.437 108.643l-73.421 27.732-58.921-3.783s-23.43-49.45-32.268-100.772z" fill="#FF5938"/><path opacity=".3" d="M161.758 263.184l55.173-31.82s47.799 86.38 109.437 108.643l-73.421 27.732-58.921-3.783s-23.43-49.45-32.268-100.772z" fill="#fff"/><path d="M325.843 339.808c-.381-.139-.762-.287-1.142-.432v1.26l1.142-.43v-.398zm-46.739 14.49h-21.658v-22.727h21.658v22.727zm-22.799-23.87h-21.656V307.7h21.656v22.728zm0 23.87h-21.656v-22.727h21.656v22.727zm-22.799-71.613h-21.658v-22.728h21.658v22.728zm0 23.871h-21.658v-22.729h21.658v22.729zm0 23.872h-21.658V307.7h21.658v22.728zm0 23.87h-21.658v-22.727h21.658v22.727zm-22.799-71.613h-21.658v-22.728h21.658v22.728zm0 23.871h-21.658v-22.729h21.658v22.729zm0 23.872h-21.658V307.7h21.658v22.728zm91.197 1.143v17.676l1.141-.429v-17.247h5.326c-.656-.376-1.313-.754-1.966-1.143h-3.36v-2.072c-.381-.241-.762-.483-1.141-.729v2.801h-21.658v-19.423c-.382-.339-.763-.679-1.142-1.021v20.444h-21.657v-22.73h19.155c-.409-.379-.818-.76-1.223-1.142h-17.932v-18.63c-.382-.434-.765-.868-1.142-1.302v19.932h-21.657v-22.729h19.258c-.324-.381-.643-.762-.963-1.142h-18.295v-22.728h.721a428.491 428.491 0 01-1.863-2.638v1.496h-21.658v-22.73h7.834c-.244-.406-.468-.782-.68-1.142h-7.154v-.646l-3.103 1.788h1.962v22.73H189.05v-11.371l-1.141.659v10.712h-18.574l-1.98 1.142h20.554v22.728h-21.658v-22.091l-1.142.658v18.541c.37 1.613.75 3.219 1.142 4.816v-.782h21.658v22.729h-15.598c.116.382.234.763.351 1.142h15.247v22.73h-7.58c.139.384.28.764.419 1.143h7.161v18.349c.395.955.775 1.866 1.141 2.736v-21.085h21.657v22.727h-20.963c.167.392.33.773.49 1.142h20.473v9.586l1.141.073v-9.659h21.658v11.051l1.142.074V355.44h21.657v11.031l1.142-.43V355.44h21.657v2.42l1.142-.431v-1.989h5.262l3.024-1.142h-8.286v-22.727h21.658z" fill="#FAFAFA"/><path d="M161.758 263.184l55.173-31.82s47.799 86.38 109.437 108.643l-73.421 27.732-58.921-3.783s-23.43-49.45-32.268-100.772zm4.871 22.132l62.811-33.16" stroke="#383955" stroke-width="1.333" stroke-miterlimit="10"/><path d="M219.144 247.031a4.703 4.703 0 11-9.403 0 4.704 4.704 0 014.702-4.704 4.703 4.703 0 014.701 4.704z" fill="#383955"/><path d="M395.226 281.91s14.718 38.835-39.296 52.58c-54.012 13.743-117.596 11.346-117.596 11.346s-6.46.088-6.072-16.851c.387-16.94-.379-50.401 21.373-87.374 21.751-36.973 35.283-50.5 46.31-54.717 3.836-1.468 30.463-3.688 45.173 4.833 27.571 15.971 48.857 53.454 50.108 90.183z" fill="#FF5938"/><path opacity=".3" d="M395.226 281.91s14.718 38.835-39.296 52.58c-54.012 13.743-117.596 11.346-117.596 11.346s-6.46.088-6.072-16.851c.387-16.94-.379-50.401 21.373-87.374 21.751-36.973 35.283-50.5 46.31-54.717 3.836-1.468 30.463-3.688 45.173 4.833 27.571 15.971 48.857 53.454 50.108 90.183z" fill="#fff"/><path d="M377.212 254.283h-21.657v-22.728h21.657v22.728zm0 23.871h-21.657v-22.729h21.657v22.729zm0 23.872h-21.657v-22.729h21.657v22.729zm0 23.87h-21.657v-22.728h21.657v22.728zm-22.799-95.484h-21.657v-22.729h21.657v22.729zm0 23.871h-21.657v-22.728h21.657v22.728zm0 23.871h-21.657v-22.729h21.657v22.729zm0 23.872h-21.657v-22.729h21.657v22.729zm0 23.87h-21.657v-22.728h21.657v22.728zm-22.799-95.484h-21.658v-22.729h21.658v22.729zm0 23.871h-21.658v-22.728h21.658v22.728zm0 23.871h-21.658v-22.729h21.658v22.729zm0 23.872h-21.658v-22.729h21.658v22.729zm0 23.87h-21.658v-22.728h21.658v22.728zm-22.798-95.484h-21.658v-22.729h21.658v22.729zm0 23.871h-21.658v-22.728h21.658v22.728zm0 23.871h-21.658v-22.729h21.658v22.729zm0 23.872h-21.658v-22.729h21.658v22.729zm0 23.87h-21.658v-22.728h21.658v22.728zm-22.799-71.613h-21.659v-22.728h21.659v22.728zm0 23.871h-21.659v-22.729h21.659v22.729zm0 23.872h-21.659v-22.729h21.659v22.729zm0 23.87h-21.659v-22.728h21.659v22.728zm-22.801-23.87H241.56v-22.729h21.656v22.729zm0 23.87H241.56v-22.728h21.656v22.728zm115.138-22.728h17.443c.105-.383.203-.764.292-1.142h-17.735v-22.73h16.738c-.022-.38-.041-.762-.068-1.142h-16.67v-22.729h12.627c-.107-.38-.211-.763-.324-1.142h-12.303v-22.729h3.051c-.204-.384-.412-.762-.618-1.142h-2.433v-4.296c-.372-.625-.759-1.239-1.142-1.854v6.15h-21.657v-22.729h9.11c-.357-.386-.719-.763-1.081-1.142h-8.029v-7.504c-.378-.313-.76-.617-1.142-.921v8.425h-21.657v-19.289c-.379-.082-.761-.158-1.142-.234v19.523h-21.656V185.61c-.389.018-.77.037-1.142.06v20.871h-21.658v-11.148c-.376.35-.757.707-1.141 1.079v10.069h-9.021c-.301.374-.602.753-.906 1.142h9.927v22.729h-21.659v-6.172c-.379.581-.757 1.158-1.142 1.754v4.418h-2.797c-.238.381-.474.755-.714 1.142h3.511v22.729h-16.254c-.178.38-.364.763-.537 1.142h16.791v22.729H241.56v-10.749a149.091 149.091 0 00-1.142 3.323v7.426h-2.244c-.105.383-.2.76-.301 1.142h2.545v22.73h-6.779c-.043.381-.088.764-.128 1.142h6.907v22.728h-8.098l-.02 1.142h8.118v18.856c.34.008.724.018 1.142.024v-18.88h21.656v18.786c.376-.008.76-.02 1.142-.03v-18.756h21.659v17.75c.379-.024.76-.051 1.141-.077v-17.673h21.658v15.73l1.142-.129v-15.601h21.656v12.541l1.142-.193v-12.348h21.657v7.829c.38-.094.762-.188 1.142-.284v-7.545h19.929a57.044 57.044 0 002.87-1.691v-22.179z" fill="#FAFAFA"/><path d="M295.988 186.895s-74.306 63.046-62.442 156.34" stroke="#383955" stroke-width="1.333" stroke-miterlimit="10"/><path d="M347.061 322.363l4.236 59.109-70.362-7.033s-6.799-2.101-12.149 3.145c-5.349 5.246-5.251 8.066-5.673 9.861-.42 1.793-1.995 8.469-5.114 11.974-3.117 3.506-5.713 3.378-7.953 1.1l-2.239-2.279s-.881-.455-2.08.72c-1.198 1.174-4.293 2.547-5.996.206-1.705-2.342-1.773-2.071-1.773-2.071s-.536-.992-1.507-.031c-.973.96-5.242 2.6-7.452-.04-2.209-2.638-3.092-4.401-3.092-4.401s-.651-.223-1.971.297c-1.32.517-6.745 1.823-9.72-4.599-2.976-6.422-1.179-16.16 0-22.548 1.177-6.389 6.64-20.242 11.596-25.844s14.321-12.089 24.113-13.714c9.792-1.626 37.043-2.722 48.538-3 11.496-.277 48.598-.852 48.598-.852z" fill="#fff"/><path d="M258.011 357.055s-10.315 18.2-12.187 28.198c-1.871 9.997 3.776 17.162 7.039 16.946 3.264-.218 7.873-3.585 9.898-13.287 2.027-9.703 8.607-14.672 13.434-14.773 4.825-.102 78.746 7.717 78.746 7.717" stroke="#383955" stroke-width="1.333" stroke-miterlimit="10"/><path d="M245.111 354.648s-8.506 19.5-9.333 29.699c-.827 10.198 3.821 15.824 6.057 16.148 2.235.325 5.583-2.94 5.583-2.94" stroke="#383955" stroke-width="1.333" stroke-miterlimit="10"/><path d="M233.82 347.454s-9.271 18.401-9.866 29.041c-.596 10.639 1.493 18.176 5.561 20.914 4.069 2.739 8.144-1.285 8.144-1.285" stroke="#383955" stroke-width="1.333" stroke-miterlimit="10"/><path d="M348.965 322.346s-70.276.537-93.029 2.945c-22.752 2.408-32.519 14.875-37.677 27.54-5.157 12.668-6.888 29.341-3.873 35.085 5.174 9.854 11.054 3.942 11.054 3.942" stroke="#383955" stroke-width="1.333" stroke-miterlimit="10"/><path d="M354.519 242.326s39.54 34.746 34.016 57.226c-5.522 22.479-95.791 20.309-95.791 20.309v63.922s39.596-.887 73.528 3.592c39.687 5.239 102.161-9.5 108.467-56.538 6.305-47.038-32.246-132.194-136.593-146.27l16.373 57.759z" fill="#FF5938"/><path opacity=".3" d="M354.519 242.326s39.54 34.746 34.016 57.226c-5.522 22.479-95.791 20.309-95.791 20.309v63.922s39.596-.887 73.528 3.592c39.687 5.239 102.161-9.5 108.467-56.538 6.305-47.038-32.246-132.194-136.593-146.27l16.373 57.759z" fill="#fff"/><path d="M468.41 325.895h-21.657v-22.727h21.657v22.727zm0 23.873h-21.657v-22.729h21.657v22.729zm-22.799-71.615h-21.659v-22.728h21.659v22.728zm0 23.873h-21.659v-22.729h21.659v22.729zm0 23.869h-21.659v-22.727h21.659v22.727zm0 23.873h-21.659v-22.729h21.659v22.729zm-22.8-95.486h-21.658v-22.727h21.658v22.727zm0 23.871h-21.658v-22.728h21.658v22.728zm0 23.873h-21.658v-22.729h21.658v22.729zm0 23.869h-21.658v-22.727h21.658v22.727zm0 23.873h-21.658v-22.729h21.658v22.729zm0 23.871h-21.658V350.91h21.658v22.729zm-22.799-143.228h-21.657v-22.728h21.657v22.728zm0 23.871h-21.657v-22.727h21.657v22.727zm0 95.486h-21.657v-22.729h21.657v22.729zm0 23.871h-21.657V350.91h21.657v22.729zm-22.799-23.871h-21.657v-22.729h21.657v22.729zm0 23.871h-21.657V350.91h21.657v22.729zm-22.799-23.871h-21.658v-22.729h21.658v22.729zm0 23.871h-21.658V350.91h21.658v22.729zm-22.799-23.871h-21.658v-22.729h21.658v22.729zm0 23.871h-21.658V350.91h21.658v22.729zm45.598-143.228h-21.657v-22.728h21.657v22.728zm92.339 95.484v-22.727h4.248c-.067-.379-.138-.761-.209-1.142h-4.039v-15.673a135.34 135.34 0 00-1.142-3.331v19.004h-21.657v-22.73h20.267c-.15-.381-.304-.762-.456-1.143h-19.811v-22.728h8.158a156.52 156.52 0 00-.728-1.143h-7.43v-10.468c-.379-.487-.755-.975-1.142-1.459v11.927h-21.659v-22.728h12.126c-.371-.383-.748-.763-1.126-1.143h-11v-10.006c-.379-.312-.758-.622-1.141-.932v10.938h-21.657v-22.728h4.792c-.634-.383-1.264-.767-1.908-1.143h-2.884v-1.647c-.377-.21-.761-.414-1.142-.621v2.268h-21.657v-12.11c-.377-.139-.763-.27-1.142-.407v12.517h-21.657v-18.836c-.379-.086-.761-.169-1.142-.252v19.088h-10.039l.323 1.143h9.716v22.728h-3.272l.323 1.143h2.949v10.403l.105.369s.373.328 1.037.936v-11.708h21.657v22.728h-10.68c.343.375.689.754 1.039 1.143h9.641v11.82c.385.529.766 1.063 1.142 1.6v-13.42h21.657v22.728h-15.926c.2.381.395.761.585 1.143h15.341v22.73h-12.489c-.222.388-.47.769-.746 1.142h13.235v22.727h-21.657v-16.461a39.12 39.12 0 01-1.142.527v15.934h-21.657v-9.998c-.379.066-.761.129-1.142.193v9.805h-21.658v-7.248l-1.141.09v7.158h-21.657v-6.108l-1.141.026v6.082h-16.073v1.143h16.073v22.73h-16.073v1.142h16.073v22.729h-16.073v1.142h16.073v8.976l1.141.015v-8.991h21.657v9.647l1.141.058v-9.705h21.658v11.256l1.142.111v-11.367h21.657v13.5c.38.015.759.029 1.142.04v-13.54h21.657v12.465c.381-.048.761-.093 1.142-.145v-12.32h21.657v7.61c.382-.117.761-.241 1.141-.362v-7.248h17.388a90.186 90.186 0 002.077-1.142h-19.465V350.91h21.659v21.441c.382-.232.764-.466 1.142-.703V350.91h21.008a53.004 53.004 0 001.791-3.252v-20.62h5.584c.031-.38.06-.759.085-1.143h-5.669z" fill="#FAFAFA"/><path d="M354.519 242.326s39.54 34.746 34.016 57.226c-5.522 22.479-95.791 20.309-95.791 20.309v63.922s39.596-.887 73.528 3.592c39.687 5.239 102.161-9.5 108.467-56.538 6.305-47.038-32.246-132.194-136.593-146.27" stroke="#383955" stroke-width="1.333" stroke-miterlimit="10"/><path d="M309.359 371.658a4.697 4.697 0 11-4.695-4.698 4.698 4.698 0 014.695 4.698z" fill="#383955"/><path d="M315.8 319.611v64.163" stroke="#383955" stroke-width="1.333" stroke-miterlimit="10"/><path d="M351.819 132.326c0 7.494-6.121 13.569-13.674 13.569-7.551 0-13.672-6.075-13.672-13.569 0-7.494 6.121-13.568 13.672-13.568 7.553 0 13.674 6.074 13.674 13.568z" stroke="#000" stroke-width="2.667" stroke-miterlimit="10"/><path d="M292.251 90.223h17.175c11.417 0 20.76 10.642 20.76 23.649v26.635c0 .752-.04 1.492-.1 2.225.185.786.293 1.6.293 2.44v33.332c0 5.884-4.81 10.698-10.692 10.698h-6.814c-5.879 0-10.691-4.814-10.691-10.698v-14.349h-9.931c-11.417 0-20.76-10.641-20.76-23.648v-26.635c0-13.007 9.343-23.649 20.76-23.649z" fill="#fff"/><path d="M292.251 90.223h17.175c11.417 0 20.76 10.642 20.76 23.649v26.635c0 .752-.04 1.492-.1 2.225.185.786.293 1.6.293 2.44v33.332c0 5.884-4.81 10.698-10.692 10.698h-6.814c-5.879 0-10.691-4.814-10.691-10.698v-14.349h-9.931c-11.417 0-20.76-10.641-20.76-23.648v-26.635c0-13.007 9.343-23.649 20.76-23.649z" stroke="#383955" stroke-width="1.333" stroke-miterlimit="10"/><path d="M325.685 131.889l-3.169-20.863s-57.693 7.236-76.395-20.803c-18.703-28.04.951-39.14 10.461-37.554 9.509 1.586 20.628 15.224 20.628 15.224s-8.852-12.052 0-13.955c8.851-1.903 18.628 7.294 23.725 16.81 0 0 38.029-3.548 50.885 19.475 12.855 23.023 2.436 39.357-21.076 63.143l-1.571-13.305-3.488-8.172z" fill="#383955"/><path d="M320.509 135.987c0 5.448-4.414 9.866-9.859 9.866-5.446 0-9.86-4.418-9.86-9.866 0-5.449 4.414-9.865 9.86-9.865 5.445 0 9.859 4.416 9.859 9.865zm-46.611-7.889c-.6 0-1.181.078-1.74.211v10.231c0 1.53-.162 3.019.147 4.459.412.069 1.161.116 1.593.116a7.506 7.506 0 007.504-7.509 7.507 7.507 0 00-7.504-7.508z" fill="#FF8B74"/><path d="M302.712 122.21a3.509 3.509 0 11-7.017 0 3.509 3.509 0 017.017 0zm-22.96-.515a2.994 2.994 0 11-5.987 0 2.994 2.994 0 115.987 0z" fill="#383955"/><path d="M283.101 136.051s1.761 5.139 5.488 5.491c3.725.353 6.645-3.777 6.847-7.002l-12.335 1.511z" fill="#fff"/><path d="M282.731 136.153c.607 1.758 1.706 3.527 3.182 4.672 2.614 2.029 5.943.992 7.901-1.422 1.12-1.38 1.872-3.082 2.004-4.863.015-.189-.187-.406-.382-.382-3.601.441-7.202.881-10.803 1.324l-1.533.187c-.483.059-.488.825 0 .765l10.801-1.324c.512-.061 1.023-.124 1.535-.187l-.383-.383c-.203 2.727-2.162 5.774-4.906 6.495-2.629.691-4.666-1.249-5.87-3.364-.312-.548-.602-1.124-.808-1.721-.16-.463-.9-.264-.738.203z" fill="#383955"/><path d="M316.958 120.155c0 7.562-5.481 13.692-12.242 13.692-6.762 0-12.242-6.13-12.242-13.692 0-7.561 5.48-13.691 12.242-13.691 6.761 0 12.242 6.13 12.242 13.691zm-32.673-1.715c0 6.762-4.513 12.244-10.08 12.244s-10.08-5.482-10.08-12.244c0-6.763 4.513-12.244 10.08-12.244s10.08 5.481 10.08 12.244z" stroke="#25263D" stroke-width="1.333" stroke-miterlimit="10"/><path d="M287.848 118.745v11.891l-6.23-3.798 6.23-8.093z" fill="#FF8B74"/><path d="M283.967 122.101s5.212-1.974 8.787.982m24.187-2.426l16.607 3.474" stroke="#25263D" stroke-width="1.333" stroke-miterlimit="10"/><path d="M351.819 132.326c0 7.494-6.121 13.569-13.674 13.569-7.551 0-13.672-6.075-13.672-13.569 0-7.494 6.121-13.568 13.672-13.568 7.553 0 13.674 6.074 13.674 13.568z" fill="#fff"/><path d="M331.222 134.118c-.174-2.74 1.009-5.906 3.676-7.156 1.458-.684 3.137-.728 4.71-.564.603.062.599-.881 0-.943-2.702-.282-5.624.23-7.426 2.439-1.159 1.419-1.713 3.215-1.87 5.02a7.81 7.81 0 00-.032 1.204c.037.603.98.608.942 0z" fill="#383955"/><path d="M341.885 194.963h-49.262a3.234 3.234 0 01-3.233-3.236v-8.455a3.233 3.233 0 013.233-3.236h49.262a3.235 3.235 0 013.233 3.236v8.455a3.236 3.236 0 01-3.233 3.236z" fill="#FF5938"/><path opacity=".3" d="M341.885 194.963h-49.262a3.234 3.234 0 01-3.233-3.236v-8.455a3.233 3.233 0 013.233-3.236h49.262a3.235 3.235 0 013.233 3.236v8.455a3.236 3.236 0 01-3.233 3.236z" fill="#fff"/><path d="M300.934 187.187a2.618 2.618 0 11-5.237 0 2.62 2.62 0 115.237 0z" fill="#383955"/><path d="M332.757 194.963v-11.151h12.361v-.54c0-.207-.023-.407-.06-.602h-12.301v-2.634h-1.141v2.634h-21.658v-2.634h-1.142v2.634h-19.367a3.217 3.217 0 00-.059.602v.54h19.426v11.151h1.142v-11.151h21.658v11.151h1.141z" fill="#FAFAFA"/><path d="M341.885 194.963h-49.262a3.234 3.234 0 01-3.233-3.236v-8.455a3.233 3.233 0 013.233-3.236h49.262a3.235 3.235 0 013.233 3.236v8.455a3.236 3.236 0 01-3.233 3.236z" stroke="#383955" stroke-width="1.333" stroke-miterlimit="10"/><path d="M457.605 382.816c-7.31 0-13.237-5.928-13.237-13.243 0-7.314 5.927-13.243 13.237-13.243 7.31 0 13.236 5.929 13.236 13.243 0 7.315-5.926 13.243-13.236 13.243zm0-34.201c-11.569 0-20.948 9.383-20.948 20.958 0 11.574 9.379 20.958 20.948 20.958 11.568 0 20.947-9.384 20.947-20.958 0-11.575-9.379-20.958-20.947-20.958z" fill="#fff"/><path d="M457.605 382.816c-7.31 0-13.237-5.928-13.237-13.243 0-7.314 5.927-13.243 13.237-13.243 7.31 0 13.236 5.929 13.236 13.243 0 7.315-5.926 13.243-13.236 13.243zm0-34.201c-11.569 0-20.948 9.383-20.948 20.958 0 11.574 9.379 20.958 20.948 20.958 11.568 0 20.947-9.384 20.947-20.958 0-11.575-9.379-20.958-20.947-20.958z" stroke="#383955" stroke-width="1.333" stroke-miterlimit="10"/><path d="M451.782 403.208h-44.321a6.706 6.706 0 01-6.704-6.709v-53.114a6.706 6.706 0 016.704-6.709h44.321a6.707 6.707 0 016.705 6.709v53.114a6.707 6.707 0 01-6.705 6.709z" fill="#fff"/><path d="M451.782 403.208h-44.321a6.706 6.706 0 01-6.704-6.709v-53.114a6.706 6.706 0 016.704-6.709h44.321a6.707 6.707 0 016.705 6.709v53.114a6.707 6.707 0 01-6.705 6.709z" stroke="#383955" stroke-width="1.333" stroke-miterlimit="10"/><path d="M434.703 388.969h-10.161c-5.073 0-9.185-4.114-9.185-9.189v-1.018c0-5.075 4.112-9.188 9.185-9.188h10.161c5.073 0 9.185 4.113 9.185 9.188v1.018c0 5.075-4.112 9.189-9.185 9.189z" fill="#FF5938"/><path d="M420.469 393.944h-1.009a2.843 2.843 0 01-2.843-2.844v-6.295a2.843 2.843 0 012.843-2.844h1.009a2.843 2.843 0 012.843 2.844v6.295a2.843 2.843 0 01-2.843 2.844zm19.275.368h-1.01a2.843 2.843 0 01-2.842-2.844v-6.294a2.843 2.843 0 012.842-2.844h1.01a2.843 2.843 0 012.842 2.844v6.294a2.843 2.843 0 01-2.842 2.844zm-17.593-19.402c-.92-4.153-1.701-8.386-2.028-12.63-.604-7.834 3.278-11.501 11.452-10.359 4.311.601 6.176-6.002 1.823-6.609-8.143-1.137-17.839.808-19.928 10.1-1.499 6.672.625 14.773 2.075 21.32.953 4.304 7.559 2.483 6.606-1.822z" fill="#FF5938"/><path d="M438.002 375.603c.265-.331 1.642.149 2.046.279 2.729.887 13.304 3.302 12.554 12.439-.5 6.085-3.846 8.462-6.761 9.432-1.056.351-1.831-.959-1.018-1.719 1.032-.965 2.052-2.179 2.664-3.591 1.545-3.566-1.654-6.389-10.238-10.483-.585-.279-.179-4.175.224-4.68l.529-1.677z" fill="#FF5938"/><path d="M431.109 347.088a.744.744 0 11-1.488 0 .744.744 0 011.488 0zm-.826 2.702c.062.235.199.46.342.652.359.482.872.82 1.436 1.021a4.919 4.919 0 001.541.259c.111.003.111-.168 0-.171-1.188-.029-2.531-.442-3.074-1.6a1.198 1.198 0 01-.079-.206c-.029-.107-.193-.062-.166.045z" fill="#383955"/><path d="M428.334 373.929c0 .668-.878 1.21-1.958 1.21-1.081 0-1.958-.542-1.958-1.21 0-.668.877-1.21 1.958-1.21 1.08 0 1.958.542 1.958 1.21zm3.534 2.254c0 .382-.503.692-1.123.692-.618 0-1.122-.31-1.122-.692 0-.384.504-.693 1.122-.693.62 0 1.123.309 1.123.693zm3.594-3.898c0 .514-.973.929-2.17.929-1.198 0-2.17-.415-2.17-.929 0-.513.972-.93 2.17-.93 1.197 0 2.17.417 2.17.93zm3.223 2.595c0 .337-.453.609-1.014.609-.559 0-1.014-.272-1.014-.609 0-.337.455-.609 1.014-.609.561 0 1.014.272 1.014.609z" fill="#FF5938"/><path opacity=".6" d="M428.334 373.929c0 .668-.878 1.21-1.958 1.21-1.081 0-1.958-.542-1.958-1.21 0-.668.877-1.21 1.958-1.21 1.08 0 1.958.542 1.958 1.21zm3.534 2.254c0 .382-.503.692-1.123.692-.618 0-1.122-.31-1.122-.692 0-.384.504-.693 1.122-.693.62 0 1.123.309 1.123.693zm3.594-3.898c0 .514-.973.929-2.17.929-1.198 0-2.17-.415-2.17-.929 0-.513.972-.93 2.17-.93 1.197 0 2.17.417 2.17.93zm3.223 2.594c0 .337-.453.609-1.014.609-.559 0-1.014-.272-1.014-.609 0-.337.455-.609 1.014-.609.561 0 1.014.272 1.014.609z" fill="#fff"/><path d="M80.277 403.624l120.946.222c12.555.023 19.046-9.724 14.499-21.772l-31.704-83.987c-4.548-12.046-18.412-21.832-30.967-21.854l-120.946-.221c-12.555-.023-19.046 9.725-14.499 21.772l31.703 83.985c4.547 12.048 18.413 21.832 30.968 21.855z" fill="#383955"/><path d="M98.532 333.272c1.418 5.333 6.886 9.665 12.214 9.674 5.327.01 8.498-4.307 7.08-9.64-1.418-5.333-6.887-9.664-12.215-9.674-5.328-.009-8.497 4.306-7.08 9.64z" fill="#fff"/><path d="M164.136 403.778l121.849.222a2.895 2.895 0 002.901-2.89l.023-12.307a2.893 2.893 0 00-2.888-2.901l-121.855-.224a2.894 2.894 0 00-2.898 2.892l-.022 12.307a2.896 2.896 0 002.89 2.901z" fill="#383955"/></svg>