<svg width="20" height="21" viewBox="0 0 20 21" fill="none" xmlns="http://www.w3.org/2000/svg"><path d="M10 .323c-5.52 0-10 4.48-10 10s4.48 10 10 10 10-4.48 10-10-4.48-10-10-10zm4.06 14.713c-.169 0-.274-.052-.431-.145-2.516-1.516-5.444-1.58-8.335-.988-.157.04-.363.105-.48.105a.628.628 0 01-.637-.637c0-.415.246-.613.549-.678 3.302-.73 6.677-.665 9.556 1.057.246.157.391.298.391.665a.61.61 0 01-.613.621zm1.085-2.645c-.21 0-.35-.093-.496-.17-2.52-1.491-6.278-2.092-9.62-1.185-.194.053-.3.105-.48.105a.783.783 0 01-.783-.782c0-.432.21-.718.625-.835a13.563 13.563 0 013.944-.548c2.617 0 5.145.649 7.137 1.834.326.194.455.444.455.795a.781.781 0 01-.782.786zm1.25-3.072c-.21 0-.338-.053-.52-.158-2.871-1.713-8.004-2.125-11.327-1.197-.145.04-.326.105-.52.105a.93.93 0 01-.94-.952c0-.548.34-.859.702-.964 1.42-.415 3.008-.613 4.738-.613 2.944 0 6.028.613 8.283 1.928.314.181.52.431.52.911 0 .548-.444.94-.936.94z" fill="#16D570"/></svg>