<svg width="12" height="12" viewBox="0 0 12 12" fill="none" xmlns="http://www.w3.org/2000/svg"><path d="M4.126 1.498a3 3 0 013.748 0l.14.112a3 3 0 00.78.451l.168.066a3 3 0 011.874 3.245l-.027.177a2.997 2.997 0 000 .902l.027.177a3 3 0 01-1.874 3.245l-.167.066c-.282.11-.545.262-.781.45l-.14.113a3 3 0 01-3.748 0l-.14-.112a3.01 3.01 0 00-.78-.451l-.168-.066a3 3 0 01-1.874-3.245l.027-.177a3 3 0 000-.902l-.027-.177a3 3 0 011.874-3.245l.167-.066a3 3 0 00.781-.45l.14-.113z" fill="#17C5EB"/><path d="M8 4.5L5.25 7.25 4 6" stroke="#fff" stroke-linecap="round" stroke-linejoin="round"/></svg>